<svg width="24" height="16" viewBox="0 0 24 16" fill="none" xmlns="http://www.w3.org/2000/svg">
<path d="M1.77808 7.22168C1.22579 7.22168 0.778076 7.66939 0.778076 8.22168C0.778076 8.77396 1.22579 9.22168 1.77808 9.22168V7.22168ZM23.4852 8.92879C23.8757 8.53826 23.8757 7.9051 23.4852 7.51457L17.1212 1.15061C16.7307 0.760088 16.0975 0.760088 15.707 1.15061C15.3165 1.54114 15.3165 2.1743 15.707 2.56483L21.3639 8.22168L15.707 13.8785C15.3165 14.2691 15.3165 14.9022 15.707 15.2927C16.0975 15.6833 16.7307 15.6833 17.1212 15.2927L23.4852 8.92879ZM1.77808 9.22168L22.7781 9.22168V7.22168L1.77808 7.22168V9.22168Z" fill="#B6B6B6"/>
</svg>
