<svg width="32" height="32" viewBox="0 0 32 32" fill="none" xmlns="http://www.w3.org/2000/svg">
<path d="M12.7945 0.245756C8.54358 1.19349 5.05925 3.5489 2.66203 7.11686C-1.53311 13.4026 -0.696867 21.8347 4.65507 27.2145C6.25786 28.8312 8.69689 30.3922 10.5366 30.9915C11.2195 31.2145 11.3032 31.2145 11.6098 31.0054C11.9443 30.7824 11.9582 30.7267 11.9582 29.1239V27.4793L10.7317 27.549C9.2962 27.6187 8.18121 27.3678 7.51222 26.7964C7.27528 26.6012 6.81535 25.9323 6.49479 25.319C5.96518 24.2876 5.57493 23.8138 4.48782 22.8521C4.12545 22.5315 4.11151 22.5176 4.36238 22.3364C4.96169 21.8904 6.17424 22.3225 6.94079 23.2423C8.27877 24.873 8.79445 25.3051 9.56101 25.4723C10.2439 25.6117 10.8711 25.5559 11.8189 25.2772C11.9443 25.2354 12.1115 24.9427 12.1952 24.6082C12.2788 24.2876 12.5018 23.7998 12.683 23.535L13.0175 23.0472L11.8885 22.8242C9.51919 22.3364 8.05577 21.4862 7.0941 20.0368C6.20211 18.6988 5.90943 17.542 5.89549 15.3817C5.89549 13.3468 6.11849 12.5106 6.99654 11.3677C7.38678 10.866 7.4286 10.7127 7.3171 10.42C7.10804 9.91826 7.16379 7.79979 7.38678 7.15867C7.56797 6.6848 7.66553 6.60118 8.04184 6.55937C8.66902 6.48968 9.83975 6.89386 11.0244 7.56285L12.0419 8.14822L12.9338 7.93916C14.2021 7.64648 18.007 7.66041 19.1499 7.93916L20.014 8.16216L20.8224 7.67435C21.8955 7.03323 23.2614 6.53149 23.9443 6.53149C24.4879 6.53149 24.4879 6.54543 24.7109 7.25623C24.9478 8.07854 24.9896 9.56983 24.7806 10.2806C24.6691 10.6988 24.6969 10.8242 25.0036 11.2284C26.5227 13.2353 26.69 16.5664 25.4077 19.2981C24.5436 21.096 22.7178 22.3504 20.2649 22.8103L19.0941 23.0333L19.5262 23.7998L19.9722 24.5803L20.014 27.6884L20.0698 30.7964L20.4182 31.0194C20.7387 31.2284 20.8084 31.2284 21.4774 30.9915C22.5924 30.6152 24.5018 29.5838 25.5471 28.7894C31.7632 24.1343 33.7701 15.7859 30.3276 8.84509C28.3067 4.76145 24.4879 1.62555 20.1116 0.454815C18.2022 -0.0469284 14.6063 -0.158426 12.7945 0.245756Z" fill="white"/>
</svg>
