<svg width="28" height="28" viewBox="0 0 28 28" fill="none" xmlns="http://www.w3.org/2000/svg">
<path d="M6.22222 6.64828L6.22222 26.8419C6.22222 27.0772 6.03147 27.268 5.79616 27.268H0.426062C0.190755 27.268 0 27.0772 0 26.8419L0 0.426062C0 0.190754 0.190754 0 0.426061 0L27.5739 0C27.8092 0 28 0.190754 28 0.426062V15.6785C28 15.9138 27.8092 16.1046 27.5739 16.1046H17.1812C16.7951 16.1046 16.6081 16.5771 16.8896 16.8413L27.215 26.5312C27.4965 26.7955 27.3095 27.268 26.9234 27.268H18.8405C18.7291 27.268 18.6221 27.2243 18.5424 27.1463L10.0103 18.792C9.92848 18.7118 9.88235 18.6021 9.88235 18.4876V10.3084C9.88235 10.0731 10.0731 9.88235 10.3084 9.88235H21.5347C21.77 9.88235 21.9608 9.6916 21.9608 9.45629V6.64828C21.9608 6.41298 21.77 6.22222 21.5347 6.22222L6.64828 6.22222C6.41298 6.22222 6.22222 6.41298 6.22222 6.64828Z" fill="white" fill-opacity="0.2"/>
<path d="M9.88232 26.8423V23.3838C9.88232 23.0004 10.3493 22.8121 10.6153 23.0883L13.9456 26.5467C14.2062 26.8174 14.0144 27.2683 13.6387 27.2683H10.3084C10.0731 27.2683 9.88232 27.0776 9.88232 26.8423Z" fill="white" fill-opacity="0.2"/>
</svg>
