<svg width="43" height="42" viewBox="0 0 43 42" fill="none" xmlns="http://www.w3.org/2000/svg">
<path d="M9.55556 10.2894L9.55556 41.266C9.55556 41.637 9.25475 41.9378 8.88368 41.9378H0.671875C0.300809 41.9378 0 41.637 0 41.266L0 0.733887C0 0.36282 0.300809 0.0620117 0.671875 0.0620117L42.3281 0.0620117C42.6992 0.0620117 43 0.362822 43 0.733888V24.1222C43 24.4932 42.6992 24.794 42.3281 24.794H26.4298C25.8209 24.794 25.526 25.5391 25.97 25.9558L41.762 40.776C42.206 41.1927 41.9112 41.9378 41.3022 41.9378L28.9408 41.9378C28.7651 41.9378 28.5963 41.869 28.4708 41.746L15.3783 28.9263C15.2492 28.7999 15.1765 28.6269 15.1765 28.4462L15.1765 15.9104C15.1765 15.5393 15.4773 15.2385 15.8483 15.2385L33.0536 15.2385C33.4247 15.2385 33.7255 14.9377 33.7255 14.5666V10.2894C33.7255 9.91838 33.4247 9.61757 33.0536 9.61757L10.2274 9.61757C9.85637 9.61757 9.55556 9.91838 9.55556 10.2894Z" fill="white"/>
<path d="M15.1763 41.266V36.0159C15.1763 35.4112 15.9127 35.1143 16.3321 35.5499L21.3877 40.7999C21.7987 41.2267 21.4962 41.9378 20.9037 41.9378H15.8481C15.4771 41.9378 15.1763 41.637 15.1763 41.266Z" fill="white"/>
</svg>
