<svg width="65" height="58" viewBox="0 0 65 58" fill="none" xmlns="http://www.w3.org/2000/svg">
<path d="M63.7148 18.5742C62.3292 27.2699 57.9036 35.192 51.2255 40.9311C44.5474 46.6701 36.0498 49.854 27.2447 49.916C25.4614 49.9847 23.6756 49.8763 21.9137 49.5924C14.3211 48.3005 8.66158 41.8823 8.32731 34.1867C8.36285 30.0215 10.0344 26.0373 12.9814 23.0936C19.1128 16.9696 29.0235 16.8993 35.2409 22.9364C38.2297 25.8378 39.958 29.7981 40.0528 33.9625C40.1195 36.593 38.9804 38.8996 36.6389 38.9669C34.1367 38.9669 32.9651 37.1817 32.9651 34.7757V28.09C32.9661 27.0089 32.5396 25.9714 31.7786 25.2035C31.0176 24.4357 29.9839 23.9999 28.9029 23.9912H23.2986C21.6687 23.9801 20.0621 24.3776 18.6255 25.1475C17.1889 25.9174 15.9682 27.035 15.0749 28.3983C12.1236 32.9045 13.3805 38.9525 17.8861 41.9038C19.8391 43.1841 22.1867 43.7209 24.502 43.4166C26.8173 43.1124 28.9465 41.9873 30.5024 40.2459L30.6984 39.9537L30.8944 40.2783C31.5683 41.194 32.458 41.9289 33.4844 42.4178C34.5109 42.9066 35.6422 43.1343 36.7778 43.0805C40.9873 42.7745 44.1844 39.1668 43.9816 34.9499C44.0013 33.2101 43.8064 31.4746 43.4013 29.7825C42.3621 25.0035 39.5907 20.7782 35.6213 17.9211C27.4003 12.0036 16.0399 13.249 9.29387 20.805C6.03731 24.4545 4.24657 29.1801 4.26666 34.0712C4.32874 39.2575 6.39859 44.2178 10.0413 47.9098C13.684 51.6019 18.616 53.7383 23.8009 53.8702C24.8391 53.9548 25.8809 53.9869 26.9223 53.9664C34.9637 53.9155 42.8236 51.5702 49.5779 47.2059C49.6741 47.1389 49.7704 47.2727 49.7062 47.3699C46.4178 50.9128 42.3963 53.6961 37.9222 55.5258C33.448 57.3556 28.6287 58.1878 23.8 57.9645C20.6431 58.0214 17.5075 57.4383 14.5821 56.2503C11.6568 55.0623 9.00244 53.294 6.77913 51.0522C4.55581 48.8104 2.80962 46.1415 1.6459 43.2064C0.482184 40.2713 -0.0749569 37.1309 0.00808877 33.9747C0.00961433 30.2115 0.888718 26.5005 2.57556 23.1366C4.2624 19.7727 6.71049 16.8485 9.72534 14.5963C13.7765 11.6121 18.6727 9.99532 23.7044 9.98038H31.2245C34.1621 9.97812 37.0671 9.36406 39.7543 8.1773C42.4415 6.99054 44.8521 5.25711 46.8325 3.08742C46.8743 3.04087 46.93 3.00912 46.9913 2.99696C47.0526 2.98335 47.1167 2.98949 47.1743 3.0145C47.2319 3.03951 47.2802 3.0821 47.3121 3.13618C47.3443 3.19027 47.3588 3.25309 47.3535 3.31583C47.0345 6.69638 45.9089 9.95101 44.0711 12.8063C44.0439 12.8558 44.0317 12.9122 44.0359 12.9686C44.0401 13.0249 44.0606 13.0788 44.0949 13.1238C44.1292 13.1687 44.1758 13.2027 44.229 13.2217C44.2822 13.2407 44.3398 13.2438 44.3948 13.2307C47.8663 12.4462 51.1052 10.8578 53.8508 8.59329C56.5965 6.32876 58.7722 3.45133 60.203 0.192553C60.2393 0.134255 60.2894 0.0858643 60.349 0.0517232C60.4089 0.0178182 60.4766 0 60.5455 0C60.6143 0 60.682 0.0178182 60.7419 0.0517232C60.8014 0.0857641 60.8514 0.134188 60.8873 0.192553C63.8343 5.83925 64.8283 12.3029 63.7141 18.5742H63.7148ZM23.7801 27.9944C20.55 27.9944 17.9307 30.6249 17.93 33.855C17.9298 35.2088 18.3989 36.5207 19.2574 37.5674C20.1159 38.6141 21.3108 39.3308 22.6384 39.5954C25.8069 40.2254 28.8862 38.1675 29.5162 34.9987C29.591 34.6225 29.6286 34.2399 29.6285 33.8563V28.3948C29.6233 28.2903 29.5795 28.1914 29.5055 28.1174C29.4315 28.0434 29.3327 27.9996 29.2282 27.9944H23.7801Z" fill="#702AF7"/>
</svg>
