<svg width="60" height="48" viewBox="0 0 60 48" fill="none" xmlns="http://www.w3.org/2000/svg">
<path d="M6.61887 6.34219C6.50566 3.09141 9.03844 0.09375 12.462 0.09375H47.5424C50.9659 0.09375 53.4987 3.09141 53.3855 6.34219C53.2767 9.46488 53.4179 13.51 54.4359 16.8082C55.4572 20.1166 57.1794 22.2079 60 22.4766V25.5234C57.1794 25.7921 55.4572 27.8834 54.4359 31.1918C53.4179 34.49 53.2767 38.5351 53.3855 41.6579C53.4987 44.9086 50.9659 47.9062 47.5424 47.9062H12.462C9.03844 47.9062 6.50566 44.9086 6.61898 41.6579C6.72762 38.5351 6.58641 34.49 5.56828 31.1918C4.54711 27.8834 2.8207 25.7921 0 25.5234V22.4766C2.82059 22.2079 4.54711 20.1166 5.56828 16.8082C6.58641 13.51 6.72762 9.46488 6.61887 6.34219Z" fill="url(#paint0_linear_279_2219)"/>
<g filter="url(#filter0_d_279_2219)">
<path d="M31.3015 36.7097C36.8441 36.7097 40.1841 33.9959 40.1841 29.5197C40.1841 26.1361 37.801 23.6866 34.2624 23.2988V23.1578C36.8622 22.7349 38.9023 20.3206 38.9023 17.6243C38.9023 13.7826 35.8692 11.28 31.2474 11.28H20.8481V36.7097H31.3015ZM24.8923 14.505H30.2725C33.1972 14.505 34.8581 15.8091 34.8581 18.1705C34.8581 20.6907 32.9264 22.1004 29.4239 22.1004H24.8923V14.505ZM24.8923 33.4848V25.114H30.2363C34.0637 25.114 36.0497 26.5238 36.0497 29.273C36.0497 32.0221 34.118 33.4848 30.471 33.4848H24.8923Z" fill="url(#paint1_linear_279_2219)"/>
<path d="M31.3015 36.7097C36.8441 36.7097 40.1841 33.9959 40.1841 29.5197C40.1841 26.1361 37.801 23.6866 34.2624 23.2988V23.1578C36.8622 22.7349 38.9023 20.3206 38.9023 17.6243C38.9023 13.7826 35.8692 11.28 31.2474 11.28H20.8481V36.7097H31.3015ZM24.8923 14.505H30.2725C33.1972 14.505 34.8581 15.8091 34.8581 18.1705C34.8581 20.6907 32.9264 22.1004 29.4239 22.1004H24.8923V14.505ZM24.8923 33.4848V25.114H30.2363C34.0637 25.114 36.0497 26.5238 36.0497 29.273C36.0497 32.0221 34.118 33.4848 30.471 33.4848H24.8923Z" stroke="white" stroke-width="0.117187"/>
</g>
<defs>
<filter id="filter0_d_279_2219" x="18.9146" y="9.81519" width="23.2031" height="29.2969" filterUnits="userSpaceOnUse" color-interpolation-filters="sRGB">
<feFlood flood-opacity="0" result="BackgroundImageFix"/>
<feColorMatrix in="SourceAlpha" type="matrix" values="0 0 0 0 0 0 0 0 0 0 0 0 0 0 0 0 0 0 127 0" result="hardAlpha"/>
<feOffset dy="0.46875"/>
<feGaussianBlur stdDeviation="0.9375"/>
<feColorMatrix type="matrix" values="0 0 0 0 0 0 0 0 0 0 0 0 0 0 0 0 0 0 0.15 0"/>
<feBlend mode="normal" in2="BackgroundImageFix" result="effect1_dropShadow_279_2219"/>
<feBlend mode="normal" in="SourceGraphic" in2="effect1_dropShadow_279_2219" result="shape"/>
</filter>
<linearGradient id="paint0_linear_279_2219" x1="8.91551" y1="1.35914" x2="61.3453" y2="42.9779" gradientUnits="userSpaceOnUse">
<stop stop-color="#9013FE"/>
<stop offset="1" stop-color="#6610F2"/>
</linearGradient>
<linearGradient id="paint1_linear_279_2219" x1="22.6771" y1="12.9538" x2="34.3965" y2="32.774" gradientUnits="userSpaceOnUse">
<stop stop-color="white"/>
<stop offset="1" stop-color="#F1E5FC"/>
</linearGradient>
</defs>
</svg>
