<svg width="65" height="71" viewBox="0 0 65 71" fill="none" xmlns="http://www.w3.org/2000/svg">
<path d="M7.17044 14.7691C7.0478 11.2475 9.79164 8 13.5004 8H51.5042C55.2131 8 57.9569 11.2475 57.8343 14.7691C57.7164 18.1521 57.8694 22.5342 58.9723 26.1073C60.0787 29.6915 61.9444 31.9569 65 32.248V35.5488C61.9444 35.8399 60.0787 38.1054 58.9723 41.6895C57.8694 45.2626 57.7164 49.6448 57.8343 53.0279C57.9569 56.5494 55.2131 59.7969 51.5042 59.7969H13.5004C9.79164 59.7969 7.0478 56.5494 7.17057 53.0279C7.28825 49.6448 7.13527 45.2626 6.0323 41.6895C4.92604 38.1054 3.05576 35.8399 0 35.5488V32.248C3.05563 31.9569 4.92604 29.6915 6.0323 26.1073C7.13527 22.5342 7.28825 18.1521 7.17044 14.7691Z" fill="url(#paint0_linear_305_4516)"/>
<g filter="url(#filter0_d_305_4516)">
<path d="M33.9094 47.6677C39.9139 47.6677 43.5322 44.7277 43.5322 39.8785C43.5322 36.213 40.9505 33.5593 37.117 33.1392V32.9865C39.9335 32.5283 42.1436 29.9128 42.1436 26.9919C42.1436 22.83 38.8578 20.1189 33.8508 20.1189H22.585V47.6677H33.9094ZM26.9661 23.6126H32.7947C35.9632 23.6126 37.7625 25.0254 37.7625 27.5836C37.7625 30.3137 35.6698 31.841 31.8754 31.841H26.9661V23.6126ZM26.9661 44.1741V35.1057H32.7554C36.9018 35.1057 39.0533 36.633 39.0533 39.6113C39.0533 42.5895 36.9606 44.1741 33.0097 44.1741H26.9661Z" fill="url(#paint1_linear_305_4516)"/>
<path d="M33.9094 47.6677C39.9139 47.6677 43.5322 44.7277 43.5322 39.8785C43.5322 36.213 40.9505 33.5593 37.117 33.1392V32.9865C39.9335 32.5283 42.1436 29.9128 42.1436 26.9919C42.1436 22.83 38.8578 20.1189 33.8508 20.1189H22.585V47.6677H33.9094ZM26.9661 23.6126H32.7947C35.9632 23.6126 37.7625 25.0254 37.7625 27.5836C37.7625 30.3137 35.6698 31.841 31.8754 31.841H26.9661V23.6126ZM26.9661 44.1741V35.1057H32.7554C36.9018 35.1057 39.0533 36.633 39.0533 39.6113C39.0533 42.5895 36.9606 44.1741 33.0097 44.1741H26.9661Z" stroke="white" stroke-width="0.126953"/>
</g>
<defs>
<filter id="filter0_d_305_4516" x="20.4902" y="18.532" width="25.1367" height="31.7383" filterUnits="userSpaceOnUse" color-interpolation-filters="sRGB">
<feFlood flood-opacity="0" result="BackgroundImageFix"/>
<feColorMatrix in="SourceAlpha" type="matrix" values="0 0 0 0 0 0 0 0 0 0 0 0 0 0 0 0 0 0 127 0" result="hardAlpha"/>
<feOffset dy="0.507812"/>
<feGaussianBlur stdDeviation="1.01562"/>
<feColorMatrix type="matrix" values="0 0 0 0 0 0 0 0 0 0 0 0 0 0 0 0 0 0 0.15 0"/>
<feBlend mode="normal" in2="BackgroundImageFix" result="effect1_dropShadow_305_4516"/>
<feBlend mode="normal" in="SourceGraphic" in2="effect1_dropShadow_305_4516" result="shape"/>
</filter>
<linearGradient id="paint0_linear_305_4516" x1="9.65847" y1="9.37084" x2="66.4574" y2="54.4579" gradientUnits="userSpaceOnUse">
<stop stop-color="#9013FE"/>
<stop offset="1" stop-color="#6610F2"/>
</linearGradient>
<linearGradient id="paint1_linear_305_4516" x1="24.5663" y1="21.9322" x2="37.2624" y2="43.404" gradientUnits="userSpaceOnUse">
<stop stop-color="white"/>
<stop offset="1" stop-color="#F1E5FC"/>
</linearGradient>
</defs>
</svg>
