<svg width="66" height="65" viewBox="0 0 66 65" fill="none" xmlns="http://www.w3.org/2000/svg">
<path d="M64.2753 29.6044L35.8952 1.22582C34.2618 -0.408606 31.6109 -0.408606 29.9755 1.22582L24.0822 7.11909L31.5581 14.595C33.2954 14.0079 35.2876 14.4018 36.6724 15.7866C38.0638 17.1803 38.4549 19.1895 37.8536 20.9324L45.0583 28.1373C46.8014 27.5368 48.8127 27.9253 50.2048 29.3198C52.1506 31.2648 52.1506 34.4171 50.2048 36.3633C48.2586 38.3098 45.1063 38.3098 43.1591 36.3633C41.6955 34.8982 41.334 32.7489 42.0749 30.9458L35.3559 24.2269L35.3551 41.9085C35.8422 42.1493 36.287 42.4674 36.6724 42.8505C38.6181 44.7954 38.6181 47.948 36.6724 49.8957C34.7262 51.8412 31.5724 51.8412 29.6289 49.8957C27.6832 47.948 27.6832 44.7957 29.6289 42.8507C30.0952 42.3842 30.6493 42.0147 31.2593 41.7637V23.9173C30.6484 23.668 30.094 23.2983 29.6289 22.8303C28.1547 21.3582 27.8003 19.1951 28.5556 17.385L21.1861 10.0147L1.72639 29.4732C0.0912033 31.1091 0.0912033 33.7602 1.72639 35.3949L30.107 63.774C31.7409 65.4087 34.3913 65.4087 36.0272 63.774L64.2751 35.5267C65.9097 33.8915 65.91 31.2389 64.2753 29.6044Z" fill="#DE4C36"/>
</svg>
