<svg width="60" height="59" viewBox="0 0 60 59" fill="none" xmlns="http://www.w3.org/2000/svg">
<path d="M3.51445 40.4369C3.57195 40.5669 3.63695 40.6869 3.70695 40.8069C3.73945 40.8769 3.78445 40.9494 3.82445 41.0144C3.88946 41.1444 3.95946 41.2694 4.02696 41.3944L4.41946 42.0544C4.49196 42.1769 4.56196 42.2969 4.64446 42.4169C4.78196 42.6519 4.94447 42.8819 5.08697 43.117C5.15197 43.2145 5.21197 43.312 5.28447 43.4095C5.55947 43.837 5.80947 44.192 6.07698 44.537C6.26698 44.7945 6.45698 45.047 6.66198 45.2995C6.72948 45.3945 6.80448 45.4895 6.87448 45.5845L7.42699 46.2545C7.49449 46.332 7.56199 46.422 7.63449 46.502C7.87949 46.797 8.1395 47.082 8.3995 47.372C8.3995 47.377 8.407 47.382 8.412 47.3895C8.7345 47.7945 9.08201 48.1545 9.46201 48.4745L9.47201 48.4845C9.67201 48.6895 9.87201 48.892 10.0845 49.092L10.337 49.3345C10.6145 49.5945 10.892 49.852 11.1845 50.102C11.1895 50.102 11.192 50.107 11.197 50.1095L11.3395 50.2345C11.5945 50.457 11.852 50.677 12.1145 50.882L12.427 51.1445C12.6395 51.3145 12.8595 51.4745 13.077 51.642L13.417 51.902C13.6496 52.077 13.8971 52.247 14.1346 52.417C14.2221 52.4795 14.3096 52.542 14.3996 52.5995L14.4721 52.657L15.1746 53.117L15.4746 53.317C15.8421 53.552 16.2071 53.7721 16.5721 53.9921C16.6771 54.0446 16.7821 54.1021 16.8796 54.1621C17.1496 54.3171 17.4296 54.4746 17.7021 54.6171C17.8521 54.7021 18.0071 54.7746 18.1621 54.8521C18.3496 54.9571 18.5446 55.0596 18.7446 55.1646C18.7996 55.1821 18.8446 55.1996 18.8896 55.2246L18.8996 55.2146C18.9821 55.2521 19.0596 55.2921 19.1396 55.3321C19.4396 55.4821 19.7521 55.6246 20.0771 55.7646C20.1371 55.7896 20.2021 55.8146 20.2671 55.8496C20.6271 56.0071 20.9871 56.1571 21.3596 56.3021C21.4446 56.3271 21.5346 56.3696 21.6221 56.4021C21.9596 56.5296 22.3071 56.6596 22.6521 56.7821L22.7771 56.8271C23.1596 56.9571 23.5371 57.0821 23.9272 57.1996C24.0172 57.2246 24.1097 57.2571 24.2047 57.2821C24.6022 57.4021 24.9872 57.5446 25.3897 57.6196C51.0724 62.2771 58.535 42.2544 58.535 42.2544C52.2649 50.3795 41.1373 52.522 30.5997 50.137C30.2097 50.047 29.8197 49.922 29.4247 49.807C28.8672 49.6492 28.3144 49.475 27.7672 49.2845L28.0047 49.357L27.8497 49.297C27.5097 49.182 27.1822 49.0545 26.8497 48.927C26.7683 48.8925 26.6858 48.8608 26.6022 48.832L26.5747 48.8245C26.2072 48.677 25.8497 48.527 25.4947 48.3695C25.4172 48.3445 25.3522 48.3095 25.2747 48.2795C24.8542 48.0963 24.4374 47.9045 24.0247 47.7045L24.3697 47.857C24.2796 47.8172 24.1912 47.7738 24.1047 47.727C23.8697 47.617 23.6346 47.492 23.4046 47.3745C23.2295 47.2915 23.0569 47.2031 22.8871 47.1095L22.9371 47.1345C22.6546 46.9845 22.3721 46.822 22.0871 46.6695C22.0021 46.6095 21.9046 46.5595 21.8071 46.5045C21.3835 46.2583 20.9651 46.0032 20.5521 45.7395L20.7096 45.8345C20.6038 45.7691 20.5004 45.6999 20.3996 45.627L20.4146 45.637C20.1459 45.4719 19.8824 45.2985 19.6246 45.117C19.5396 45.062 19.4621 45.002 19.3746 44.942C19.1052 44.7581 18.8402 44.5681 18.5796 44.372L18.6396 44.4145C18.5346 44.3295 18.4221 44.2495 18.3096 44.167C18.0896 43.9945 17.8671 43.8295 17.6471 43.6495L17.3521 43.4145C17.0377 43.1643 16.7293 42.9067 16.4271 42.6419L16.4246 42.6394L15.5571 41.8519L15.3071 41.6169C15.1021 41.4094 14.8921 41.2119 14.6821 41.0069L14.4396 40.7569C14.1807 40.5006 13.9281 40.238 13.6821 39.9694L13.6671 39.9519L13.6245 39.9169C13.3598 39.6262 13.099 39.332 12.842 39.0344C12.7745 38.9569 12.712 38.8744 12.642 38.7919L12.0745 38.1044C11.8187 37.7831 11.5687 37.4572 11.3245 37.1269L11.2245 36.9869C5.37947 29.0468 3.26445 18.0892 7.94199 9.09912L3.81195 14.3217C-1.5006 21.9192 -0.843091 31.7993 3.21945 39.8669C3.31195 40.0644 3.41445 40.2494 3.51445 40.4369Z" fill="#1266A9"/>
<path d="M21.4069 29.4916L21.3794 29.4516L21.3569 29.4216L21.4069 29.4916Z" fill="black"/>
<path d="M24.2023 32.7717L24.4273 32.9967C24.7123 33.2717 25.0048 33.5392 25.3023 33.8067L25.3398 33.8392C25.6398 34.1042 25.9773 34.3817 26.3248 34.6517L26.3773 34.6917C26.4623 34.7492 26.5348 34.8167 26.6173 34.8742C26.9673 35.1442 27.3198 35.4017 27.6873 35.6592L27.7248 35.6817C27.8798 35.7942 28.0448 35.8967 28.2198 36.0067C28.2898 36.0517 28.3698 36.1117 28.4448 36.1567C28.7098 36.3267 28.9698 36.4842 29.2373 36.6467C29.2798 36.6642 29.3173 36.6867 29.3573 36.7042C29.5824 36.8417 29.8274 36.9742 30.0624 37.0942C30.1449 37.1442 30.2249 37.1817 30.3099 37.2292C30.4774 37.3117 30.6424 37.3992 30.8024 37.4842L30.8824 37.5192C31.2199 37.6842 31.5649 37.8392 31.9024 37.9917C31.9874 38.0242 32.0599 38.0517 32.1324 38.0867C32.4099 38.2067 32.6924 38.3217 32.9699 38.4267C33.0949 38.4692 33.2124 38.5192 33.3299 38.5567C33.5849 38.6517 33.8524 38.7392 34.1049 38.8267L34.4549 38.9393C34.8199 39.0518 35.1899 39.1993 35.5774 39.2593C55.4101 42.5243 60.0001 27.3316 60.0001 27.3316C55.8676 33.2492 47.87 36.0692 39.3474 33.8667C38.922 33.7594 38.5001 33.6385 38.0824 33.5042L38.2249 33.5442C38.1049 33.5117 37.9999 33.4742 37.8849 33.4392C37.6249 33.3492 37.3574 33.2617 37.1049 33.1692L36.7449 33.0342C36.4649 32.9217 36.1799 32.8167 35.9074 32.6967C35.8224 32.6592 35.7449 32.6342 35.6799 32.5967C35.3299 32.4392 34.9774 32.2842 34.6349 32.1192L34.1199 31.8517L33.8224 31.7017C33.5924 31.5817 33.3799 31.4567 33.1599 31.3292C33.1038 31.3028 33.0495 31.2728 32.9974 31.2392L33.0049 31.2417C32.7399 31.0767 32.4649 30.9167 32.2099 30.7492C32.1249 30.7017 32.0474 30.6442 31.9674 30.5942L31.4474 30.2567C31.0874 30.0067 30.7349 29.7392 30.3774 29.4792C30.2974 29.4067 30.2199 29.3467 30.1424 29.2817C26.3948 26.3491 23.4398 22.3416 22.0373 17.804C20.5598 13.0865 20.8848 7.79645 23.4373 3.50391L20.2998 7.92395C16.4472 13.4265 16.6647 20.7816 19.6648 26.6016C20.2123 27.6766 20.7673 28.5842 21.3798 29.4492C21.9498 30.2642 22.5798 31.2192 23.3398 31.8742C23.6098 32.1817 23.8998 32.4742 24.2023 32.7717Z" fill="#1266A9"/>
<path d="M6.08951 44.5519L6.07951 44.5369L6.06201 44.5144L6.08951 44.5519ZM16.4846 42.6919L16.5096 42.7094L16.5146 42.7169L16.4846 42.6919Z" fill="black"/>
<path d="M34.1645 3.13906C31.892 6.45659 31.6745 10.5766 33.2395 14.2342C34.902 18.1192 38.2996 21.1692 42.2596 22.6142C42.4221 22.6767 42.5796 22.7292 42.7471 22.7892L42.9671 22.8567C43.1971 22.9292 43.4296 23.0142 43.6671 23.0667C54.6197 25.1693 57.5848 17.4717 58.3823 16.3392C55.7748 20.0642 51.4022 20.9592 46.0372 19.6617C45.5707 19.548 45.1115 19.406 44.6621 19.2367L44.7446 19.2642C44.1855 19.0707 43.638 18.8453 43.1046 18.5892L43.1996 18.6317C42.1746 18.1317 41.2946 17.5917 40.4771 16.9717C35.6821 13.3467 32.717 6.44409 35.8471 0.821533L34.1645 3.13906Z" fill="#1266A9"/>
</svg>
