<svg width="66" height="65" viewBox="0 0 66 65" fill="none" xmlns="http://www.w3.org/2000/svg">
<path d="M60.1151 49.5496C56.5641 49.461 53.812 49.8163 51.5037 50.7926C50.8379 51.0589 49.7725 51.0591 49.6837 51.9023C50.039 52.2577 50.0833 52.8347 50.394 53.3228C50.927 54.2103 51.8588 55.4091 52.7023 56.0306C53.6343 56.7407 54.5666 57.4508 55.5429 58.0724C57.2742 59.1378 59.2274 59.7591 60.914 60.8245C61.8909 61.4454 62.8669 62.2449 63.8435 62.9108C64.332 63.2655 64.6425 63.8428 65.264 64.0647V63.9316C64.9532 63.532 64.8644 62.955 64.5539 62.5111C64.1103 62.0673 63.6662 61.6677 63.2223 61.2238C61.9349 59.4928 60.337 57.9835 58.6058 56.7407C57.1856 55.7641 54.0782 54.4325 53.5012 52.7901C53.5012 52.7901 53.4567 52.7458 53.4124 52.7015C54.389 52.6127 55.5429 52.2577 56.4753 51.9912C57.9846 51.5916 59.3605 51.6804 60.914 51.2811C61.6241 51.1034 62.3345 50.8815 63.0446 50.6595V50.2602C62.246 49.461 61.6687 48.3959 60.8252 47.6412C58.5615 45.6878 56.0756 43.7794 53.5012 42.1815C52.125 41.2938 50.3495 40.7165 48.8848 39.9621C48.3523 39.6954 47.4643 39.5625 47.1538 39.1187C46.3546 38.1421 45.9107 36.855 45.3337 35.7007C44.0469 33.2591 42.8036 30.5519 41.6939 27.9774C40.8952 26.2462 40.4068 24.5149 39.4302 22.9171C34.8583 15.3712 29.8868 10.7992 22.252 6.3159C20.6096 5.38387 18.6567 4.98427 16.5704 4.49611C15.461 4.45156 14.3511 4.36301 13.2413 4.31845C12.5313 4.00768 11.8209 3.16448 11.1993 2.76487C8.66973 1.16674 2.14437 -2.29518 0.280027 2.27672C-0.918503 5.16194 2.05554 8.00259 3.0764 9.4676C3.83133 10.4885 4.80764 11.6424 5.34035 12.7967C5.65112 13.5508 5.73967 14.3503 6.05044 15.1492C6.76082 17.1018 7.42635 19.2772 8.35867 21.0973C8.84711 22.0293 9.37953 23.0059 10.0011 23.8491C10.3561 24.3373 10.9774 24.5595 11.1108 25.3584C10.4895 26.2462 10.445 27.5778 10.0896 28.6875C8.49178 33.7033 9.11332 39.9176 11.377 43.6017C12.0871 44.7112 13.774 47.1531 16.0377 46.2207C18.0352 45.4218 17.5913 42.8916 18.1683 40.6722C18.3017 40.1393 18.2128 39.7845 18.4791 39.4294C18.4793 39.4737 18.4791 39.5183 18.4791 39.5183C19.1006 40.7611 19.7219 41.9596 20.2989 43.2024C21.675 45.3772 24.0718 47.6412 26.0693 49.1505C27.135 49.9491 27.9782 51.3253 29.3098 51.8138V51.6804H29.221C28.9545 51.2808 28.5552 51.1034 28.2001 50.7926C27.4012 49.9937 26.5131 49.0171 25.8919 48.1294C24.0278 45.6435 22.3851 42.8916 20.9204 40.0507C20.2103 38.6748 19.5888 37.1655 19.0118 35.7896C18.7453 35.2566 18.7453 34.4579 18.3014 34.1917C17.6356 35.168 16.6593 36.0115 16.1708 37.2101C15.3279 39.1187 15.2388 41.4712 14.928 43.9125C14.7506 43.9571 14.8392 43.9125 14.7504 44.0013C13.3302 43.646 12.8417 42.1815 12.309 40.9385C10.9774 37.787 10.7554 32.7267 11.9097 29.0871C12.2205 28.1548 13.5521 25.2253 13.0194 24.3376C12.7532 23.4941 11.8651 23.0059 11.377 22.3401C10.8 21.4966 10.1785 20.4315 9.77913 19.4992C8.71371 17.0136 8.181 14.2615 7.02703 11.7756C6.49432 10.6213 5.56229 9.42306 4.80764 8.35791C3.96444 7.15939 3.03212 6.3159 2.36629 4.89543C2.14464 4.40728 1.83358 3.60835 2.18863 3.07564C2.27746 2.72059 2.45484 2.58749 2.81017 2.49865C3.38716 2.01022 5.02957 2.63176 5.60654 2.89797C7.24895 3.56351 8.62487 4.18534 10.0011 5.11737C10.6223 5.56125 11.2881 6.40473 12.0871 6.62667H13.0194C14.4398 6.93716 16.0377 6.7155 17.3693 7.11483C19.7221 7.86919 21.8524 8.97917 23.7613 10.1777C29.5763 13.8618 34.3698 19.0998 37.6104 25.3584C38.1431 26.379 38.3648 27.3116 38.8532 28.3767C39.7855 30.5519 40.9395 32.7713 41.8715 34.9018C42.8036 36.9878 43.6913 39.1187 45.0229 40.8499C45.689 41.7817 48.352 42.2701 49.5506 42.7585C50.4383 43.1579 51.8145 43.5132 52.6134 44.0014C54.1225 44.9331 55.6318 45.9988 57.0522 47.0197C57.7626 47.5521 59.9817 48.6621 60.1151 49.5496L60.1151 49.5496Z" fill="#0280A3"/>
<path d="M14.8388 10.9764C14.0842 10.9764 13.5518 11.0656 13.019 11.1987C13.019 11.1984 13.019 11.2432 13.019 11.2875H13.1079C13.4632 11.9976 14.0842 12.486 14.5281 13.1073C14.8834 13.8174 15.1939 14.5278 15.5492 15.2381C15.5935 15.1936 15.6378 15.1493 15.6378 15.1493C16.2596 14.7051 16.5701 13.995 16.5701 12.9299C16.3036 12.6191 16.2593 12.3084 16.0374 11.9976C15.7711 11.5534 15.1939 11.3318 14.8388 10.9764Z" fill="#0280A3"/>
</svg>
