<svg width="71" height="53" viewBox="0 0 71 53" fill="none" xmlns="http://www.w3.org/2000/svg">
<path d="M60.8544 30.4676C58.3889 30.4805 56.246 31.0743 54.4517 31.9521C53.7934 30.6483 53.1351 29.4866 53.0189 28.6346C52.8898 27.6407 52.7349 27.034 52.8898 25.8464C53.0447 24.6588 53.7418 22.9678 53.7289 22.8387C53.716 22.7096 53.574 22.1029 52.154 22.09C50.7341 22.0771 49.5078 22.361 49.3658 22.7354C49.2238 23.1097 48.9527 23.9617 48.772 24.8395C48.5267 26.1304 45.9321 30.7387 44.4476 33.1526C43.97 32.2103 43.5569 31.3841 43.4665 30.7258C43.3375 29.7318 43.1826 29.1251 43.3375 27.9376C43.4924 26.75 44.1894 25.0589 44.1765 24.9299C44.1636 24.8008 44.0216 24.1941 42.6017 24.1812C41.1817 24.1682 39.9554 24.4522 39.8134 24.8266C39.6714 25.2009 39.5165 26.0787 39.2196 26.9307C38.9227 27.7826 35.4761 35.4762 34.5725 37.4641C34.1078 38.4838 33.7077 39.2971 33.4237 39.8522C33.4237 39.8522 33.4108 39.8909 33.372 39.9554C33.1268 40.433 32.9848 40.6912 32.9848 40.6912C32.9848 40.6912 32.9848 40.6912 32.9848 40.7041C32.7912 41.0527 32.5846 41.3754 32.4813 41.3754C32.4039 41.3754 32.2619 40.446 32.5072 39.1809C33.0235 36.5088 34.2498 32.3523 34.2369 32.2103C34.2369 32.1328 34.4693 31.41 33.4366 31.0356C32.4297 30.6613 32.0683 31.2809 31.9779 31.2809C31.8876 31.2809 31.823 31.5003 31.823 31.5003C31.823 31.5003 32.9461 26.8274 29.6802 26.8274C27.6406 26.8274 24.8266 29.0606 23.4324 31.0743C22.5547 31.552 20.6829 32.5717 18.6821 33.669C17.9205 34.0949 17.1331 34.5209 16.3973 34.9211C16.3456 34.8695 16.294 34.8049 16.2424 34.7533C12.2923 30.5322 4.98609 27.5503 5.2959 21.8834C5.41208 19.8181 6.12205 14.3965 19.3275 7.81309C30.1965 2.45603 38.8453 3.94052 40.3427 7.2322C42.4855 11.9309 35.7085 20.6571 24.478 21.9222C20.1924 22.3998 17.9463 20.7475 17.3783 20.1279C16.7845 19.4824 16.6942 19.4437 16.4747 19.5728C16.1133 19.7664 16.3456 20.3473 16.4747 20.6829C16.8103 21.5607 18.1916 23.1097 20.528 23.8714C22.5934 24.5426 27.6148 24.9169 33.6948 22.5676C40.4976 19.9342 45.8159 12.6151 44.254 6.48351C42.692 0.261576 32.3652 -1.79089 22.5934 1.68152C16.7845 3.74689 10.4851 6.99985 5.95424 11.2339C0.571361 16.2682 -0.280604 20.6442 0.0679274 22.4772C1.32006 28.9831 10.2915 33.2172 13.8801 36.3539C13.6994 36.4572 13.5316 36.5476 13.3896 36.625C11.5953 37.5157 4.75374 41.0914 3.04981 44.8736C1.11352 49.1592 3.35961 52.2315 4.8441 52.6446C9.45246 53.9225 14.1899 51.6248 16.7329 47.8297C19.2759 44.0345 18.9661 39.1035 17.7914 36.8445C17.7785 36.8186 17.7656 36.7928 17.7398 36.767C18.2045 36.4959 18.6821 36.2119 19.1468 35.9409C20.0633 35.3987 20.9669 34.8953 21.7414 34.4822C21.3025 35.6827 20.9798 37.1155 20.8249 39.1809C20.6313 41.6077 21.6252 44.7574 22.929 45.9966C23.5099 46.5388 24.194 46.5517 24.6329 46.5517C26.1561 46.5517 26.8403 45.2867 27.6019 43.7893C28.5313 41.9563 29.3704 39.8263 29.3704 39.8263C29.3704 39.8263 28.3248 45.5836 31.1647 45.5836C32.1974 45.5836 33.243 44.2411 33.7077 43.5569V43.5698C33.7077 43.5698 33.7335 43.5311 33.7851 43.4407C33.8884 43.2729 33.9529 43.1697 33.9529 43.1697V43.1438C34.366 42.421 35.2954 40.7816 36.6766 38.0579C38.458 34.5467 40.1749 30.1578 40.1749 30.1578C40.1749 30.1578 40.3298 31.2292 40.859 33.0106C41.1688 34.0562 41.8143 35.2051 42.3306 36.3152C41.9175 36.8961 41.6593 37.2188 41.6593 37.2188C41.6593 37.2188 41.6593 37.2188 41.6723 37.2317C41.3366 37.6706 40.9752 38.1482 40.575 38.6129C39.168 40.291 37.4899 42.2144 37.2575 42.7695C36.9864 43.4278 37.051 43.9055 37.5673 44.2927C37.9417 44.5767 38.6129 44.6154 39.2971 44.5767C40.5621 44.4863 41.4528 44.1765 41.8917 43.9829C42.5759 43.7376 43.3762 43.3633 44.1249 42.8082C45.5061 41.7884 46.3452 40.3298 46.2677 38.4064C46.229 37.3479 45.8804 36.2894 45.4545 35.2954C45.5836 35.1147 45.6997 34.934 45.8288 34.7533C48.0104 31.5649 49.7014 28.0666 49.7014 28.0666C49.7014 28.0666 49.8563 29.138 50.3855 30.9194C50.6437 31.823 51.173 32.8041 51.6377 33.7593C49.5852 35.4245 48.3202 37.3608 47.8684 38.6258C47.0551 40.9752 47.6876 42.0337 48.8881 42.279C49.4303 42.3951 50.2048 42.137 50.7728 41.8917C51.4957 41.6594 52.3476 41.2592 53.1609 40.6654C54.5421 39.6456 55.8717 38.2257 55.7942 36.3023C55.7555 35.4245 55.5232 34.5596 55.2004 33.7206C56.9431 32.9977 59.1892 32.5975 62.0549 32.9332C68.1994 33.656 69.4128 37.4899 69.1804 39.1035C68.9481 40.717 67.6572 41.5948 67.2312 41.8659C66.8052 42.137 66.6632 42.2273 66.702 42.421C66.7536 42.705 66.9601 42.692 67.3216 42.6404C67.825 42.55 70.5487 41.3366 70.6649 38.3677C70.8585 34.5726 67.2441 30.4289 60.8544 30.4676ZM13.4541 46.4484C11.4146 48.6687 8.57468 49.5078 7.34836 48.7978C6.03169 48.0362 6.54803 44.7574 9.05229 42.4081C10.5755 40.9752 12.5376 39.6456 13.8414 38.8324C14.1383 38.6517 14.5772 38.3935 15.1064 38.0708C15.1968 38.0191 15.2484 37.9933 15.2484 37.9933C15.3517 37.9288 15.4549 37.8642 15.5582 37.7997C16.4747 41.1559 15.5969 44.112 13.4541 46.4484ZM28.299 36.3539C27.589 38.0837 26.1045 42.5113 25.2009 42.2661C24.4264 42.0595 23.9488 38.7033 25.046 35.3858C25.6011 33.7206 26.7758 31.7327 27.4599 30.9582C28.5701 29.7189 29.7964 29.3059 30.0933 29.8093C30.4676 30.4676 28.7379 35.2696 28.299 36.3539ZM40.5492 42.2144C40.2523 42.3693 39.9683 42.4726 39.8392 42.3951C39.7489 42.3435 39.9683 42.137 39.9683 42.137C39.9683 42.137 41.5044 40.4847 42.1111 39.736C42.4597 39.2971 42.8728 38.7807 43.3116 38.1999V38.3677C43.3116 40.3427 41.4012 41.6723 40.5492 42.2144ZM49.9983 40.0587C49.7788 39.9038 49.8176 39.3875 50.5534 37.7739C50.8373 37.1414 51.5086 36.0829 52.6574 35.0631C52.7865 35.4762 52.8769 35.8763 52.864 36.2507C52.8511 38.742 51.0697 39.6714 49.9983 40.0587Z" fill="#CD6799"/>
</svg>
