<svg width="31" height="65" viewBox="0 0 31 65" fill="none" xmlns="http://www.w3.org/2000/svg">
<path d="M15.2966 0.177368L17.0311 3.43525C17.4211 4.03645 17.8436 4.5686 18.3412 5.06419C19.8001 6.5049 21.16 8.04256 22.4115 9.66666C25.3505 13.5257 27.3329 17.8114 28.7485 22.4463C29.5975 25.2777 30.0586 28.1821 30.0931 31.1191C30.2353 39.8995 27.2252 47.439 21.1563 53.7049C20.1691 54.6986 19.1026 55.6102 17.9675 56.4307C17.3663 56.4307 17.0819 55.9696 16.8341 55.5451C16.3829 54.7579 16.0825 53.8934 15.9486 52.9961C15.7353 51.9338 15.5951 50.8715 15.6642 49.7747V49.2792C15.6155 49.1735 15.0853 0.427193 15.2966 0.177368Z" fill="#599636"/>
<path d="M15.2966 0.0698759C15.2256 -0.072301 15.1545 0.0353472 15.0834 0.104405C15.1179 0.815289 14.8701 1.44899 14.4822 2.05426C14.0556 2.65546 13.491 3.11652 12.9243 3.61211C9.77612 6.33784 7.29818 9.63025 5.3138 13.3126C2.67337 18.2685 1.31254 23.5798 0.926629 29.1714C0.749923 31.1883 1.56439 38.3053 2.20013 40.3587C3.93468 45.8102 7.05039 50.3781 11.0862 54.3428C12.0774 55.2974 13.1376 56.183 14.2344 57.034C14.5533 57.034 14.5878 56.7497 14.6609 56.5385C14.8007 56.0865 14.9073 55.6248 14.9798 55.1573L15.6907 49.848L15.2966 0.0698759Z" fill="#6CAC48"/>
<path d="M17.0312 58.5878C17.1023 57.7753 17.4923 57.101 17.9168 56.4287C17.4902 56.252 17.1734 55.9006 16.9256 55.5086C16.7119 55.1375 16.535 54.7463 16.3975 54.3407C15.9019 52.854 15.7963 51.2941 15.6541 49.7748V48.8547C15.4774 48.9969 15.4408 50.1993 15.4408 50.3781C15.3375 51.9838 15.1244 53.5806 14.8031 55.1572C14.6975 55.795 14.6264 56.4307 14.2344 56.9974C14.2344 57.0685 14.2344 57.1396 14.2689 57.2452C14.9067 59.1219 15.0813 61.0332 15.189 62.981V63.6919C15.189 64.5409 15.1545 64.3622 15.8593 64.6465C16.1436 64.7521 16.4605 64.7887 16.7448 64.9999C16.9581 64.9999 16.9926 64.8232 16.9926 64.681L16.887 63.5132V60.2553C16.8525 59.6866 16.9581 59.1219 17.0292 58.5898L17.0312 58.5878Z" fill="#C2BFBF"/>
</svg>
