<svg width="44" height="65" viewBox="0 0 44 65" fill="none" xmlns="http://www.w3.org/2000/svg">
<path d="M10.8334 64.9998C16.8134 64.9998 21.6667 60.1465 21.6667 54.1665V43.3331H10.8334C4.85335 43.3331 1.90735e-05 48.1865 1.90735e-05 54.1665C1.90735e-05 60.1465 4.85335 64.9998 10.8334 64.9998Z" fill="#0ACF83"/>
<path d="M1.90735e-05 32.5002C1.90735e-05 26.5202 4.85335 21.6669 10.8334 21.6669H21.6667V43.3335H10.8334C4.85335 43.3335 1.90735e-05 38.4802 1.90735e-05 32.5002Z" fill="#A259FF"/>
<path d="M0 10.8333C0 4.85333 4.85333 0 10.8333 0H21.6667V21.6667H10.8333C4.85333 21.6667 0 16.8133 0 10.8333Z" fill="#F24E1E"/>
<path d="M21.6666 0H32.5C38.48 0 43.3333 4.85333 43.3333 10.8333C43.3333 16.8133 38.48 21.6667 32.5 21.6667H21.6666V0Z" fill="#FF7262"/>
<path d="M43.3333 32.5002C43.3333 38.4802 38.48 43.3335 32.5 43.3335C26.52 43.3335 21.6666 38.4802 21.6666 32.5002C21.6666 26.5202 26.52 21.6669 32.5 21.6669C38.48 21.6669 43.3333 26.5202 43.3333 32.5002Z" fill="#1ABCFE"/>
</svg>
