<svg width="66" height="66" viewBox="0 0 66 66" fill="none" xmlns="http://www.w3.org/2000/svg">
<path d="M32.91 65.8199C51.0856 65.8199 65.8199 51.0856 65.8199 32.91C65.8199 14.7343 51.0856 0 32.91 0C14.7343 0 0 14.7343 0 32.91C0 51.0856 14.7343 65.8199 32.91 65.8199Z" fill="#4353FF"/>
<path d="M23.9582 31.4644C23.9582 30.467 22.9888 29.4083 21.31 29.4083C19.4255 29.4083 17.3553 30.791 17.0392 33.5486C16.7161 36.3343 18.4491 37.5725 20.1918 37.5725C21.9344 37.5725 22.853 36.8912 23.7892 35.984C22.9844 34.9725 21.9502 35.441 21.7461 35.5461C21.4165 35.7295 21.0434 35.8202 20.6664 35.8088C19.9921 35.8088 19.3047 35.5058 19.3047 34.2474C23.628 33.8166 23.9582 32.4627 23.9582 31.4644ZM21.8188 31.6291C21.7917 31.9382 21.6673 32.468 19.4807 32.7675C19.9413 31.1308 20.8223 31.0064 21.2277 31.0064C21.3091 31.0031 21.3902 31.0172 21.4657 31.0478C21.5412 31.0784 21.6092 31.1247 21.6653 31.1838C21.7213 31.2428 21.7641 31.3132 21.7908 31.3902C21.8174 31.4671 21.8273 31.5489 21.8197 31.6299L21.8188 31.6291ZM14.5005 31.897C14.5005 31.897 13.5723 34.8131 13.4961 35.0496C13.4698 34.807 12.7868 29.5729 12.7868 29.5729C11.2052 29.5729 10.3593 30.7008 9.9118 31.8909C9.9118 31.8909 8.78388 34.814 8.6858 35.0618C8.6788 34.835 8.51066 31.9259 8.51066 31.9259C8.41433 30.4679 7.07975 29.5808 6 29.5808L7.30656 37.5112C8.96428 37.5042 9.85838 36.3833 10.326 35.1932C10.326 35.1932 11.3234 32.6142 11.3646 32.4969C11.3716 32.6072 12.0801 37.5112 12.0801 37.5112C13.7439 37.5112 14.6389 36.4604 15.1196 35.3105L17.4508 29.5817C15.815 29.5799 14.948 30.7017 14.5014 31.8979L14.5005 31.897ZM30.0654 29.3978C29.0408 29.3978 28.2562 29.9547 27.5959 30.7735V30.7665L28.187 26C26.8253 26 25.7175 27.1831 25.5047 28.9433L24.4731 37.4508C25.2612 37.4508 26.0897 37.224 26.5363 36.646C26.7532 36.9402 27.0376 37.178 27.3655 37.3396C27.6935 37.5011 28.0553 37.5816 28.4208 37.5743C30.7178 37.5743 32.2932 34.906 32.2932 32.4023C32.2801 30.1167 31.1767 29.3978 30.0654 29.3978ZM29.8526 33.4899C29.6118 34.8858 28.835 35.8351 28.0854 35.8351C27.3358 35.8351 27.0057 35.4979 27.0057 35.4979C27.1502 34.272 27.2395 33.5241 27.5144 32.8778C27.7894 32.2316 28.4427 31.2 29.124 31.2C29.7904 31.1965 30.0934 32.0836 29.8526 33.4864V33.4899ZM38.03 29.5834H36.4309L36.4379 29.5011C36.5483 28.4555 36.7952 27.9055 37.614 27.8162C38.171 27.7611 38.4188 27.4721 38.481 27.1559C38.5291 26.9081 38.6806 26.049 38.6806 26.049C35.4615 26.028 34.451 27.4178 34.1891 29.5361L34.1821 29.5843H34.148C33.6225 29.5843 33.0472 30.1754 32.9509 30.9259L32.9167 31.2008H33.9895L33.0883 38.6444L32.8134 39.979C32.8475 39.979 32.8887 39.986 32.9237 39.986C34.4299 39.9308 35.3932 38.7407 35.606 37.0147L36.3066 31.2026H36.8084C37.3031 31.2026 37.8811 30.7078 37.9844 29.882L38.03 29.5834ZM46.3659 29.4459C44.5155 29.4459 42.7684 30.8076 42.2325 32.9488C41.6966 35.0899 42.5075 37.6189 45.2309 37.6189C47.9544 37.6189 49.5158 34.9848 49.5158 32.7911C49.5158 30.6054 48.0376 29.4424 46.3659 29.4424V29.4459ZM47.1155 33.4216C47.0191 34.3911 46.59 35.8631 45.4236 35.8631C44.2572 35.8631 44.4122 34.1441 44.5295 33.3236C44.653 32.4479 45.1425 31.2052 46.1933 31.2052C47.1365 31.2035 47.2258 32.3244 47.1146 33.4181L47.1155 33.4216ZM58.6565 31.8979C58.6565 31.8979 57.7282 34.814 57.652 35.0505C57.6249 34.8026 56.9436 29.5685 56.9436 29.5685C55.362 29.5685 54.5161 30.6964 54.0686 31.8865C54.0686 31.8865 52.9407 34.8096 52.8426 35.0575C52.8356 34.8307 52.6675 31.9216 52.6675 31.9216C52.5711 30.4635 51.2366 29.5764 50.1568 29.5764L51.4564 37.5068C53.1141 37.4998 54.0082 36.3789 54.4758 35.1888C54.4758 35.1888 55.4733 32.6099 55.5074 32.4925C55.5214 32.6029 56.2229 37.5068 56.2229 37.5068C57.8867 37.5068 58.7817 36.456 59.2624 35.3062L61.5936 29.5773C59.963 29.5799 59.0969 30.7017 58.6565 31.8979ZM39.5432 26.0447L38.1955 36.9192L37.9196 38.2599C37.9538 38.2599 37.995 38.2669 38.03 38.2669C39.481 38.2459 40.5126 36.9735 40.7053 35.371L41.4829 29.135C41.7167 27.2277 40.5818 26.0447 39.5432 26.0447Z" fill="#E6E6E6"/>
</svg>
