<svg width="65" height="65" viewBox="0 0 65 65" fill="none" xmlns="http://www.w3.org/2000/svg">
<path d="M0 0H65V65H0V0Z" fill="#F7DF1E"/>
<path d="M17.0909 54.3189L22.0652 51.3086C23.0248 53.01 23.8978 54.4496 25.9917 54.4496C27.9989 54.4496 29.2643 53.6645 29.2643 50.6105V29.8414H35.3726V50.6968C35.3726 57.0235 31.6641 59.9032 26.2536 59.9032C21.3671 59.9032 18.5306 57.3724 17.0908 54.3184" fill="black"/>
<path d="M38.6906 53.6642L43.6642 50.7845C44.9735 52.9227 46.6751 54.4933 49.6856 54.4933C52.2165 54.4933 53.8305 53.2279 53.8305 51.4826C53.8305 49.3883 52.1726 48.6464 49.3801 47.4252L47.8534 46.7702C43.4463 44.8944 40.5228 42.5383 40.5228 37.5641C40.5228 32.9828 44.0133 29.4921 49.4676 29.4921C53.3508 29.4921 56.1433 30.8448 58.1501 34.379L53.3942 37.4331C52.3469 35.5571 51.2129 34.8155 49.4677 34.8155C47.6787 34.8155 46.5442 35.9499 46.5442 37.4331C46.5442 39.2657 47.6787 40.0076 50.2964 41.1421L51.8233 41.7966C57.0156 44.0219 59.9391 46.2905 59.9391 51.3953C59.9391 56.8933 55.6195 59.9036 49.8166 59.9036C44.1445 59.9036 40.4793 57.1986 38.6907 53.6642" fill="black"/>
</svg>
