<svg width="68" height="65" viewBox="0 0 68 65" fill="none" xmlns="http://www.w3.org/2000/svg">
<path d="M47.1168 45.0853C49.6263 44.8257 51.53 42.6623 51.4435 40.0662C51.3569 37.4701 49.1936 35.3932 46.5976 35.3932H46.4246C43.742 35.4798 41.6652 37.7297 41.7518 40.4123C41.8383 41.7104 42.3575 42.8353 43.1363 43.6141C40.1942 49.4121 35.6945 53.6523 28.9449 57.2003C24.3587 59.6233 19.5994 60.4887 14.8401 59.8829C10.9461 59.3637 7.91743 57.633 6.01371 54.7773C3.24466 50.537 2.98506 45.9506 5.32145 41.3642C6.96557 38.0758 9.56156 35.6528 11.2057 34.4413C10.8595 33.3164 10.3404 31.4126 10.0808 30.028C-2.46651 39.1143 -1.16852 51.4024 2.63893 57.2003C5.49451 61.5271 11.2922 64.2097 17.6956 64.2097C19.4263 64.2097 21.157 64.0367 22.8876 63.604C33.9638 61.4406 42.3575 54.8638 47.1168 45.0853ZM62.3466 34.3548C55.7701 26.6531 46.0784 22.4128 35.0022 22.4128H33.6177C32.8389 20.8552 31.1948 19.8167 29.3776 19.8167H29.2045C26.522 19.9033 24.4452 22.1532 24.5317 24.8358C24.6183 27.4319 26.7816 29.5088 29.3776 29.5088H29.5506C31.4544 29.4222 33.0985 28.2107 33.7908 26.5666H35.3483C41.9248 26.5666 48.1552 28.4703 53.7798 32.1914C58.1065 35.0471 61.2217 38.7681 62.9523 43.268C64.4234 46.9025 64.3369 50.4505 62.7793 53.4793C60.3563 58.0657 56.2893 60.5752 50.9243 60.5752C47.4629 60.5752 44.1747 59.5368 42.444 58.758C41.4922 59.6233 39.7615 61.0079 38.5501 61.8732C42.271 63.604 46.0784 64.5559 49.7128 64.5559C58.02 64.5559 64.1638 59.9695 66.5002 55.383C69.0096 50.364 68.8366 41.7104 62.3466 34.3548ZM18.3879 46.5564C18.4744 49.1525 20.6378 51.2293 23.2337 51.2293H23.4068C26.0893 51.1428 28.1661 48.8928 28.0796 46.2102C27.9931 43.6141 25.8297 41.5373 23.2337 41.5373H23.0607C22.8876 41.5373 22.628 41.5373 22.455 41.6238C18.9071 35.7394 17.436 29.3357 17.9552 22.4128C18.3014 17.2207 20.032 12.7208 23.0607 8.99975C25.5701 5.79791 30.416 4.24026 33.7042 4.15373C42.8767 3.98066 46.7707 15.4034 47.0303 19.9898C48.1552 20.2494 50.0589 20.8552 51.3569 21.2879C50.3185 7.26902 41.6652 0 33.3581 0C25.5701 0 18.3879 5.62484 15.5323 13.9323C11.5518 25.0089 14.1478 35.6528 18.9936 44.0468C18.561 44.6526 18.3014 45.6045 18.3879 46.5564Z" fill="#764ABC"/>
</svg>
