<svg width="66" height="65" viewBox="0 0 66 65" fill="none" xmlns="http://www.w3.org/2000/svg">
<path fill-rule="evenodd" clip-rule="evenodd" d="M57.1347 2.17028C59.7471 3.55706 61.8821 5.69718 63.2628 8.31278C64.6765 10.9615 65.4294 13.5886 65.4294 20.8307V33.5508C65.4294 33.715 65.3303 33.863 65.1786 33.9258C65.0269 33.9886 64.8523 33.9539 64.7361 33.8379V33.8361L59.9424 29.0333C59.5617 28.6519 59.348 28.135 59.3483 27.5961V21.7172C59.3483 16.2843 58.7832 14.3144 57.7233 12.3283C56.6874 10.3669 55.0858 8.76209 53.1264 7.72236C51.1665 6.67008 49.2208 6.1057 43.9292 6.09394L36.0043 6.09375C35.8404 6.09288 35.6931 5.99363 35.6308 5.84209C35.5684 5.69054 35.6032 5.51636 35.719 5.40042L40.5128 0.595833C40.8919 0.214861 41.4083 0 41.9464 0H44.6421C51.8697 0 54.4914 0.754722 57.1347 2.17028ZM47.1879 10.1562C51.6657 10.1562 55.2949 13.7944 55.2949 18.2812V23.4253C55.2941 23.5873 55.197 23.7334 55.0479 23.797C54.8988 23.8606 54.7262 23.8296 54.6087 23.7178L48.0726 17.4561C47.6393 17.0228 47.1337 16.7086 46.5939 16.5118C46.1359 16.3383 45.6501 16.2496 45.1603 16.25H25.8661C25.7019 16.2499 25.5539 16.1509 25.4911 15.9992C25.4283 15.8475 25.463 15.6728 25.579 15.5567L30.38 10.7503C30.7592 10.3711 31.2737 10.1562 31.8118 10.1562H47.1879Z" fill="#E55638"/>
<path fill-rule="evenodd" clip-rule="evenodd" d="M60.0399 35.2263L64.8354 40.0309C65.2146 40.4119 65.4295 40.9301 65.4295 41.4681V44.1711C65.4295 51.4131 64.6766 54.0402 63.2628 56.689C61.8822 59.3046 59.7471 61.4447 57.1347 62.8315C54.4914 64.2452 51.8697 65 44.6421 65H31.9509C31.787 64.9991 31.6397 64.8998 31.5773 64.7483C31.515 64.5967 31.5498 64.4226 31.6656 64.3066V64.3084L36.4593 59.5038C36.8385 59.1229 37.3549 58.908 37.8929 58.908H43.7592C49.1795 58.908 51.1439 58.3429 53.1264 57.2794C55.0859 56.2397 56.6875 54.6349 57.7234 52.6734C58.7832 50.6873 59.3484 48.7175 59.3484 43.2845V35.5134C59.3492 35.35 59.4479 35.203 59.5988 35.1404C59.7498 35.0777 59.9235 35.1116 60.0399 35.2263ZM49.9071 25.0683L54.7027 29.8783C55.0818 30.2593 55.2949 30.7756 55.2949 31.3155V46.7241C55.2949 51.2109 51.6657 54.8491 47.1879 54.8491H42.0547C41.8927 54.8483 41.7466 54.7513 41.683 54.6022C41.6194 54.4531 41.6505 54.2805 41.7622 54.163V54.1612L48.0095 47.6088C48.4428 47.1755 48.757 46.67 48.9538 46.1283C49.1263 45.6694 49.2144 45.1831 49.2138 44.6929V25.3554C49.2139 25.1912 49.3129 25.0432 49.4646 24.9804C49.6163 24.9176 49.7909 24.9522 49.9071 25.0683Z" fill="#F4C942"/>
<path fill-rule="evenodd" clip-rule="evenodd" d="M1.26196 31.162L6.05932 35.9665C6.43849 36.3475 6.65335 36.8657 6.65335 37.4038V43.2827C6.65335 48.7156 7.21668 50.6854 8.27835 52.6715C9.31375 54.6328 10.9147 56.2375 12.8735 57.2775C14.856 58.341 16.8222 58.9061 22.2425 58.9061H29.9956C30.1601 58.9055 30.3087 59.0042 30.372 59.1561C30.4353 59.308 30.4007 59.483 30.2845 59.5995L25.4871 64.404C25.1079 64.785 24.5915 64.9999 24.0553 64.9999H21.3578C14.1302 64.9999 11.5103 64.2451 8.86696 62.8296C6.25396 61.4431 4.11821 59.3029 2.7371 56.6871C1.33749 54.0648 0.585559 51.4638 0.57066 44.3851L0.570435 31.449C0.571297 31.2856 0.669989 31.1386 0.820916 31.076C0.971842 31.0133 1.14562 31.0472 1.26196 31.162ZM11.3911 41.2821H11.3893L17.929 47.5438C18.3606 47.9771 18.8679 48.2913 19.406 48.4881C19.8502 48.6578 20.334 48.7499 20.8396 48.7499H40.1338C40.2976 48.7507 40.4449 48.85 40.5073 49.0015C40.5697 49.1531 40.5349 49.3273 40.419 49.4432L35.6199 54.2496C35.2407 54.6288 34.7243 54.8436 34.1881 54.8436H18.812C16.6595 54.8412 14.5961 53.9839 13.0757 52.4601C11.5554 50.9364 10.7026 48.8711 10.705 46.7186V41.5746C10.7058 41.4125 10.8029 41.2664 10.9519 41.2029C11.101 41.1393 11.2736 41.1703 11.3911 41.2821Z" fill="#7B8FEA"/>
<path fill-rule="evenodd" clip-rule="evenodd" d="M23.9452 10.1562C24.1072 10.157 24.2533 10.2541 24.3169 10.4032C24.3805 10.5523 24.3494 10.7249 24.2377 10.8424L17.9886 17.3965C17.5553 17.8299 17.2429 18.3354 17.0461 18.8771C16.8729 19.3358 16.7842 19.8221 16.7843 20.3125V39.65C16.7827 39.8131 16.6838 39.9594 16.533 40.0216C16.3823 40.0838 16.2089 40.0498 16.0928 39.9353L11.2972 35.1253C10.9177 34.744 10.7047 34.2278 10.705 33.6899V18.2812C10.705 13.7944 14.3342 10.1562 18.812 10.1562H23.9452ZM34.049 0C34.2129 0.000870232 34.3602 0.100114 34.4226 0.251663C34.4849 0.403212 34.4501 0.577386 34.3343 0.693333L29.5406 5.49792C29.1596 5.87889 28.645 6.09375 28.107 6.09375H22.2407C16.8204 6.09375 14.8542 6.65889 12.8717 7.72236C10.9122 8.76209 9.31062 10.3669 8.27474 12.3283C7.22604 14.2935 6.66169 16.2428 6.64993 21.5468L6.64974 29.4883C6.64888 29.6517 6.55019 29.7987 6.39926 29.8614C6.24833 29.924 6.07455 29.8902 5.95821 29.7754L1.16627 24.9708C0.784952 24.5897 0.570435 24.0727 0.570435 23.5336V20.8307C0.570435 13.5886 1.32335 10.9615 2.7371 8.31278C4.11773 5.69718 6.25282 3.55706 8.86516 2.17028C11.4821 0.768878 14.0777 0.0151605 21.1406 0.000226323L34.049 0Z" fill="#D97EE8"/>
</svg>
