<svg width="46" height="64" viewBox="0 0 46 64" fill="none" xmlns="http://www.w3.org/2000/svg">
<path d="M45.3417 12.5778L41.211 58.8526L22.6431 64.0003L4.12634 58.8599L-3.05176e-05 12.5778H45.3417Z" fill="#264DE4"/>
<path d="M37.6746 55.9058L41.2046 16.3618H22.6708V60.0654L37.6746 55.9058Z" fill="#2965F1"/>
<path d="M9.45959 33.5271L9.96835 39.2034H22.6708V33.5271H9.45959Z" fill="#EBEBEB"/>
<path d="M22.6708 22.0381H22.6512H8.43732L8.95332 27.7145H22.6708V22.0381Z" fill="#EBEBEB"/>
<path d="M22.6708 54.1749V48.2691L22.6459 48.2757L16.3241 46.5687L15.92 42.0416H12.8481H10.2219L11.0171 50.9543L22.6446 54.1821L22.6708 54.1749Z" fill="#EBEBEB"/>
<path d="M10.6708 0H17.5458V2.875H13.5458V5.75H17.5458V8.625H10.6708V0Z" fill="#E6E6E6"/>
<path d="M18.9208 0H25.7958V2.5H21.7958V3H25.7958V8.75H18.9208V6.125H22.9208V5.625H18.9208V0Z" fill="#E6E6E6"/>
<path d="M27.1709 0H34.0459V2.5H30.0459V3H34.0459V8.75H27.1709V6.125H31.1709V5.625H27.1709V0Z" fill="#E6E6E6"/>
<path d="M29.6409 39.2033L28.9821 46.5651L22.6512 48.2738V54.1793L34.2879 50.9542L34.3733 49.9952L35.7072 35.0513L35.8457 33.5271L36.8704 22.0381H22.6512V27.7145H30.6497L30.1332 33.5271H22.6512V39.2033H29.6409Z" fill="#E6E6E6"/>
</svg>
