<svg width="31" height="65" viewBox="0 0 31 65" fill="none" xmlns="http://www.w3.org/2000/svg">
<path d="M23.3566 63.0407L23.9802 52.6491L25.7022 49.7096C25.7022 49.7096 21.783 51.3129 15.2215 51.3129C8.65997 51.3129 4.80014 49.7393 4.80014 49.7393L6.73 52.9458L7.4127 63.0407C7.4127 64.123 10.9818 65.0002 15.3847 65.0002C19.7874 65.0002 23.3566 64.123 23.3566 63.0407ZM21.3894 14.5134L22.6984 9.33938L29.9472 1.71188L28.0367 0.0845947L20.3623 8.20978L18.8424 14.3913C17.6986 14.353 16.5541 14.3339 15.4096 14.3342C7.32709 14.3342 0.774841 15.2553 0.774841 16.3914C0.774841 17.5275 7.32709 18.4486 15.4096 18.4486C23.4921 18.4486 30.0442 17.5275 30.0442 16.3914C30.0442 15.5548 26.4906 14.8348 21.3894 14.5134Z" fill="#D34A47"/>
<path d="M20.628 17.4107C20.628 17.4107 20.3445 17.4742 19.5106 17.4778C18.6764 17.4812 18.0841 17.4724 17.8482 17.2575C17.7848 17.1998 17.7501 17.0852 17.7504 17.0077C17.7511 16.86 17.8559 16.773 17.9894 16.7186L18.1157 16.9167C18.0608 16.9356 18.0294 16.958 18.0293 16.9819C18.0289 17.0941 18.8822 17.1709 19.5349 17.1626C20.1877 17.1545 20.9765 17.1008 20.9772 16.9902C20.9772 16.9568 20.9176 16.9253 20.8138 16.9005L20.9395 16.7037C21.1087 16.7563 21.2563 16.8577 21.256 17.0333C21.2544 17.3319 20.8745 17.3772 20.628 17.4107Z" fill="white"/>
<path d="M29.933 1.72673C30.1152 1.51621 29.8386 0.977721 29.3152 0.524158C28.7916 0.0708249 28.2193 -0.126137 28.0367 0.0843847C27.8543 0.294906 28.131 0.83339 28.6547 1.28672C29.1781 1.74017 29.7506 1.93736 29.933 1.72673ZM23.008 37.658C22.8362 36.0051 26.6234 33.6112 25.6514 33.5345C23.5591 33.6542 22.5177 35.9865 21.465 38.4294C21.0793 39.3247 19.7592 43.1423 18.8935 42.6723C18.028 42.2026 20.0156 39.0632 20.5727 37.1989C19.9299 37.6703 17.5724 39.5019 16.9649 37.7866C15.9881 38.6161 13.901 39.0655 14.1364 36.8864C13.6168 37.8069 12.4505 39.092 11.0506 38.558C9.21227 37.8569 12.1159 32.0008 12.8379 32.2962C13.56 32.5915 12.6922 33.9256 12.4649 34.4436C11.965 35.5837 11.3876 37.0169 11.7733 37.3102C12.4342 37.8129 14.2326 35.4088 14.2726 35.3559C14.6089 34.9115 15.5672 32.0043 16.3395 32.3382C17.1119 32.672 14.4131 36.5104 15.4222 37.2722C15.6257 37.426 16.4584 37.1774 16.9649 36.6294C17.2926 36.2749 17.1799 35.4897 18.2724 32.8843C19.3649 30.2791 20.3385 27.0347 21.0878 27.2819C21.837 27.5289 21.2195 29.1941 20.9507 29.8149C19.6894 32.7284 17.5083 37.5418 18.5369 37.1774C19.5655 36.8131 20.1011 36.7917 21.1083 35.6131C22.1155 34.4344 22.0691 32.493 22.7404 32.5342C23.412 32.5756 23.2993 33.1981 23.1364 33.6721C23.7972 32.9159 26.2685 31.3235 26.8651 32.9007C27.5719 34.7679 23.3294 37.465 24.3872 37.3275C25.4185 37.1934 27.0893 36.1351 27.8027 35.173L29.7664 17.5193C29.7664 17.5193 27.7904 19.1545 15.2196 19.1545C2.64864 19.1545 0.877136 17.5533 0.877136 17.5533L2.5489 33.6669C3.43626 31.1449 5.54342 26.0437 8.86488 26.2149C10.3758 26.2928 12.3927 29.2021 10.665 29.3007C9.93369 29.3423 9.85946 27.8485 8.99347 27.6291C8.36857 27.4708 7.49856 27.9788 6.93629 28.5292C5.81496 29.6267 3.40328 33.9565 3.72193 36.1151C4.12792 38.8672 7.51959 35.1588 8.09347 34.0578C8.49762 33.2823 8.77065 30.9845 9.65457 31.2256C10.5386 31.4667 9.57746 33.838 8.9367 35.9346C8.21689 38.2888 7.83847 40.7722 6.93629 40.4866C6.03399 40.2011 7.50373 37.1619 7.45053 36.6294C6.60247 37.4118 5.0401 39.3927 3.0413 38.4123L4.07954 48.4187C4.07954 48.4187 6.83896 50.5989 15.1514 50.5989C23.4639 50.5989 26.3255 48.4527 26.3255 48.4527L27.6147 36.8629C26.5599 37.89 23.2217 39.7139 23.008 37.658Z" fill="#D34A47"/>
</svg>
