<svg width="66" height="66" viewBox="0 0 66 66" fill="none" xmlns="http://www.w3.org/2000/svg">
<path d="M4.68839 33.0001C4.68839 44.2088 11.1974 53.8926 20.6422 58.4784L7.14632 21.4729C5.57597 25.0005 4.68839 28.8922 4.68839 33.0001Z" fill="#0193C4"/>
<path d="M52.1174 31.5662C52.1174 28.0727 50.8656 25.6489 49.7846 23.76C48.3394 21.4272 46.9967 19.4586 46.9967 17.1258C46.9967 14.52 48.9653 12.0962 51.7532 12.0962C51.8784 12.0962 51.9922 12.1075 52.1174 12.1189C47.0763 7.5103 40.3739 4.68823 33.0001 4.68823C23.1115 4.68823 14.4063 9.76341 9.34254 17.4444C10.0025 17.4672 10.6284 17.4786 11.1632 17.4786C14.1218 17.4786 18.7077 17.1144 18.7077 17.1144C20.2325 17.0234 20.4146 19.2651 18.8898 19.4472C18.8898 19.4472 17.3536 19.6293 15.6467 19.7203L25.9563 50.3875L32.1467 31.8051L27.7315 19.7203C26.2067 19.6293 24.7615 19.4472 24.7615 19.4472C23.2367 19.3562 23.4187 17.0234 24.9436 17.1144C24.9436 17.1144 29.6205 17.4786 32.397 17.4786C35.3556 17.4786 39.9415 17.1144 39.9415 17.1144C41.4663 17.0234 41.6484 19.2651 40.1236 19.4472C40.1236 19.4472 38.5874 19.6293 36.8805 19.7203L47.1105 50.1486L49.9325 40.7151C51.1843 36.812 52.1174 33.99 52.1174 31.5662Z" fill="#0193C4"/>
<path d="M33.5009 35.4807L25.0119 60.1624C27.5495 60.9135 30.235 61.3117 33.0115 61.3117C36.3115 61.3117 39.475 60.7428 42.4109 59.7073C42.3312 59.5821 42.2629 59.4569 42.206 59.3204L33.5009 35.4807Z" fill="#0193C4"/>
<path d="M57.8412 19.4132C57.9663 20.3122 58.0346 21.2794 58.0346 22.3263C58.0346 25.1939 57.4998 28.4256 55.8839 32.4653L47.2356 57.4656C55.6563 52.5611 61.3118 43.4349 61.3118 33.0001C61.3118 28.0729 60.0487 23.4529 57.8412 19.4132Z" fill="#0193C4"/>
<path d="M33 0C14.8045 0 0 14.8045 0 33C0 51.1955 14.8045 66 33 66C51.1955 66 66 51.1955 66 33C66 14.8045 51.1955 0 33 0ZM33 64.4866C15.6352 64.4866 1.51345 50.3648 1.51345 33C1.51345 15.6352 15.6352 1.51345 33 1.51345C50.3648 1.51345 64.4866 15.6352 64.4866 33C64.4866 50.3648 50.3648 64.4866 33 64.4866Z" fill="#0193C4"/>
</svg>
