<svg width="65" height="71" viewBox="0 0 65 71" fill="none" xmlns="http://www.w3.org/2000/svg">
<g clip-path="url(#clip0_305_4520)">
<path d="M55.9701 39.0222C53.7024 39.0341 51.7316 39.5802 50.0813 40.3876C49.4758 39.1885 48.8703 38.1199 48.7635 37.3363C48.6448 36.4222 48.5023 35.8642 48.6448 34.7719C48.7872 33.6796 49.4283 32.1243 49.4165 32.0056C49.4046 31.8869 49.274 31.3289 47.968 31.317C46.662 31.3051 45.5342 31.5663 45.4036 31.9106C45.273 32.2549 45.0236 33.0385 44.8574 33.8458C44.6318 35.0331 42.2455 39.2716 40.8801 41.4917C40.4409 40.625 40.0609 39.8652 39.9778 39.2597C39.8591 38.3455 39.7166 37.7875 39.8591 36.6952C40.0016 35.603 40.6427 34.0477 40.6308 33.9289C40.6189 33.8102 40.4883 33.2522 39.1824 33.2403C37.8764 33.2285 36.7485 33.4897 36.6179 33.834C36.4873 34.1783 36.3448 34.9856 36.0718 35.7692C35.7987 36.5528 32.6287 43.6288 31.7977 45.4571C31.3703 46.3951 31.0022 47.143 30.741 47.6535C30.741 47.6535 30.7291 47.6892 30.6935 47.7485C30.468 48.1878 30.3374 48.4253 30.3374 48.4253C30.3374 48.4253 30.3374 48.4253 30.3374 48.4371C30.1593 48.7577 29.9693 49.0545 29.8743 49.0545C29.8031 49.0545 29.6725 48.1997 29.8981 47.0362C30.373 44.5786 31.5009 40.7556 31.489 40.625C31.489 40.5538 31.7027 39.8889 30.7529 39.5446C29.8268 39.2003 29.4944 39.7702 29.4113 39.7702C29.3282 39.7702 29.2688 39.972 29.2688 39.972C29.2688 39.972 30.3017 35.6742 27.298 35.6742C25.4221 35.6742 22.8339 37.7281 21.5517 39.5802C20.7444 40.0195 19.0229 40.9575 17.1826 41.9666C16.4821 42.3584 15.7579 42.7502 15.0812 43.1182C15.0337 43.0708 14.9862 43.0114 14.9387 42.9639C11.3057 39.0816 4.5859 36.3391 4.87084 31.127C4.97769 29.2274 5.63068 24.241 17.7762 18.186C27.7729 13.2589 35.7275 14.6242 37.1047 17.6517C39.0755 21.9733 32.8425 29.9991 22.5134 31.1626C18.5717 31.6019 16.5059 30.0822 15.9835 29.5124C15.4374 28.9187 15.3543 28.8831 15.1524 29.0018C14.82 29.1799 15.0337 29.7142 15.1524 30.0229C15.4611 30.8302 16.7315 32.2549 18.8804 32.9554C20.78 33.5728 25.3984 33.9171 30.9903 31.7563C37.2472 29.3343 42.1386 22.6026 40.7021 16.9631C39.2655 11.2406 29.7675 9.35285 20.78 12.5466C15.4374 14.4462 9.64358 17.438 5.47634 21.3322C0.525503 25.9625 -0.258082 29.9873 0.0624754 31.6732C1.21411 37.6569 9.4655 41.5511 12.7661 44.4361C12.5998 44.5311 12.4455 44.6142 12.3149 44.6854C10.6646 45.5046 4.37219 48.7933 2.80502 52.2719C1.02415 56.2136 3.08996 59.0393 4.4553 59.4192C8.69378 60.5946 13.051 58.4813 15.3899 54.9907C17.7288 51.5002 17.4438 46.9649 16.3634 44.8873C16.3515 44.8635 16.3397 44.8398 16.3159 44.816C16.7433 44.5667 17.1826 44.3055 17.61 44.0562C18.453 43.5575 19.2841 43.0945 19.9964 42.7146C19.5927 43.8187 19.2959 45.1366 19.1535 47.0362C18.9754 49.2682 19.8896 52.1651 21.0887 53.3049C21.6229 53.8035 22.2522 53.8154 22.6558 53.8154C24.0568 53.8154 24.686 52.6519 25.3865 51.2747C26.2413 49.5888 27.0131 47.6298 27.0131 47.6298C27.0131 47.6298 26.0514 52.9249 28.6633 52.9249C29.6131 52.9249 30.5748 51.6902 31.0022 51.061V51.0728C31.0022 51.0728 31.026 51.0372 31.0735 50.9541C31.1684 50.7998 31.2278 50.7048 31.2278 50.7048V50.681C31.6077 50.0162 32.4625 48.5084 33.7329 46.0033C35.3713 42.7739 36.9503 38.7373 36.9503 38.7373C36.9503 38.7373 37.0928 39.7227 37.5796 41.3611C37.8645 42.3228 38.4582 43.3794 38.9331 44.4005C38.5531 44.9347 38.3157 45.2316 38.3157 45.2316C38.3157 45.2316 38.3157 45.2316 38.3276 45.2434C38.0189 45.6471 37.6864 46.0864 37.3184 46.5138C36.0243 48.0572 34.4809 49.8262 34.2672 50.3367C34.0178 50.9422 34.0772 51.3815 34.5521 51.7377C34.8964 51.9989 35.5138 52.0345 36.143 51.9989C37.3065 51.9158 38.1257 51.6308 38.5294 51.4527C39.1586 51.2272 39.8947 50.8829 40.5833 50.3723C41.8537 49.4344 42.6254 48.0928 42.5542 46.3238C42.5185 45.3503 42.198 44.3767 41.8062 43.4626C41.9249 43.2963 42.0318 43.1301 42.1505 42.9639C44.157 40.0314 45.7123 36.814 45.7123 36.814C45.7123 36.814 45.8547 37.7994 46.3415 39.4378C46.5789 40.2689 47.0657 41.1712 47.4931 42.0497C45.6054 43.5813 44.4419 45.3622 44.0264 46.5257C43.2784 48.6865 43.8601 49.66 44.9643 49.8856C45.4629 49.9924 46.1753 49.755 46.6977 49.5294C47.3625 49.3157 48.1461 48.9476 48.8941 48.4015C50.1644 47.4636 51.3873 46.1576 51.3161 44.3886C51.2805 43.5813 51.0667 42.7858 50.7699 42.0141C52.3727 41.3492 54.4385 40.9812 57.0742 41.2899C62.7255 41.9547 63.8416 45.4809 63.6279 46.9649C63.4142 48.449 62.2269 49.2563 61.8351 49.5057C61.4433 49.755 61.3127 49.8381 61.3483 50.0162C61.3958 50.2774 61.5858 50.2655 61.9182 50.218C62.3812 50.1349 64.8863 49.0189 64.9932 46.2882C65.1713 42.7977 61.847 38.9866 55.9701 39.0222ZM12.3743 53.7204C10.4984 55.7625 7.88645 56.5342 6.75857 55.8812C5.54757 55.1807 6.02247 52.1651 8.32574 50.0043C9.72669 48.6865 11.5313 47.4636 12.7304 46.7156C13.0035 46.5494 13.4072 46.312 13.8939 46.0151C13.977 45.9676 14.0245 45.9439 14.0245 45.9439C14.1195 45.8845 14.2145 45.8252 14.3095 45.7658C15.1524 48.8527 14.3451 51.5715 12.3743 53.7204ZM26.0276 44.4361C25.3746 46.027 24.0093 50.0993 23.1782 49.8737C22.4659 49.6837 22.0266 46.5969 23.0358 43.5457C23.5463 42.0141 24.6267 40.1857 25.2559 39.4734C26.277 38.3336 27.4048 37.9537 27.6779 38.4167C28.0222 39.0222 26.4313 43.4388 26.0276 44.4361ZM37.2946 49.8262C37.0216 49.9687 36.7604 50.0637 36.6417 49.9924C36.5586 49.9449 36.7604 49.755 36.7604 49.755C36.7604 49.755 38.1732 48.2353 38.7312 47.5467C39.0518 47.143 39.4317 46.6681 39.8354 46.1339V46.2882C39.8354 48.1047 38.0782 49.3276 37.2946 49.8262ZM45.9853 47.8435C45.7835 47.701 45.8191 47.2261 46.4958 45.7421C46.757 45.1603 47.3744 44.1868 48.4311 43.2488C48.5498 43.6288 48.6329 43.9968 48.621 44.3411C48.6091 46.6325 46.9707 47.4873 45.9853 47.8435Z" fill="#CD6799"/>
</g>
<defs>
<clipPath id="clip0_305_4520">
<rect width="65" height="71" fill="white"/>
</clipPath>
</defs>
</svg>
