<svg width="72" height="64" viewBox="0 0 72 64" fill="none" xmlns="http://www.w3.org/2000/svg">
<path d="M35.9116 38.2673C39.406 38.2673 42.2389 35.4345 42.2389 31.94C42.2389 28.4455 39.406 25.6127 35.9116 25.6127C32.4171 25.6127 29.5842 28.4455 29.5842 31.94C29.5842 35.4345 32.4171 38.2673 35.9116 38.2673Z" fill="#00D8FF"/>
<path d="M35.9116 19.0763C44.4052 19.0763 52.2966 20.2953 58.2455 22.3424C65.4134 24.8098 69.8212 28.5506 69.8212 31.938C69.8212 35.4675 65.1499 39.4425 57.453 41.9914C51.6338 43.9193 43.9745 44.9272 35.9116 44.9272C27.6439 44.9272 19.8173 43.982 13.9312 41.9705C6.48517 39.4258 2 35.4006 2 31.938C2 28.5777 6.20916 24.8662 13.2767 22.4031C19.2486 20.3225 27.3344 19.0763 35.9116 19.0763Z" stroke="#00D8FF" stroke-width="3.02661" stroke-miterlimit="10"/>
<path d="M24.7143 25.546C28.9569 18.1879 33.9564 11.9609 38.703 7.83119C44.4218 2.85465 49.8646 0.905847 52.7983 2.59746C55.8553 4.36016 56.9656 10.3927 55.3284 18.3363C54.0905 24.3416 51.1381 31.4782 47.1087 38.4642C42.979 45.6258 38.2492 51.9343 33.5675 56.0284C27.6437 61.2078 21.9144 63.0813 18.916 61.3521C16.0053 59.673 14.8929 54.1737 16.2876 46.8197C17.4669 40.6011 20.4277 32.9753 24.7143 25.546Z" stroke="#00D8FF" stroke-width="3.02661" stroke-miterlimit="10"/>
<path d="M24.7247 38.4788C20.4696 31.1269 17.5715 23.6872 16.3629 17.5125C14.9076 10.0728 15.9363 4.38322 18.8679 2.68743C21.9228 0.918453 27.7023 2.96971 33.7662 8.354C38.3517 12.4252 43.0585 18.5476 47.0983 25.5273C51.2405 32.6826 54.3457 39.93 55.5522 46.0294C57.0807 53.7493 55.8428 59.648 52.8464 61.3814C49.9379 63.0647 44.6184 61.2832 38.9435 56.4007C34.1509 52.2752 29.0217 45.9019 24.7247 38.4788Z" stroke="#00D8FF" stroke-width="3.02661" stroke-miterlimit="10"/>
</svg>
