<svg width="68" height="66" viewBox="0 0 68 66" fill="none" xmlns="http://www.w3.org/2000/svg">
<path d="M11.9545 0H55.5531C62.1633 0 67.5076 5.34435 67.5076 11.9545V53.8654C67.5076 60.4756 62.1633 65.8199 55.5531 65.8199H11.9545C5.34435 65.8199 0 60.4756 0 53.8654V11.9545C0 5.34435 5.34435 0 11.9545 0Z" fill="#001E36"/>
<path d="M15.189 46.1586V17.2148C15.189 17.0179 15.2734 16.9053 15.4703 16.9053C15.9485 16.9053 16.3985 16.9053 17.0455 16.8772C17.7206 16.8491 18.4238 16.8491 19.1832 16.821C19.9427 16.7928 20.7584 16.7928 21.6304 16.7647C22.5024 16.7366 23.3462 16.7366 24.19 16.7366C26.4966 16.7366 28.4093 17.0179 29.9844 17.6085C31.3909 18.0867 32.6847 18.8743 33.7536 19.9151C34.6537 20.8152 35.3569 21.9122 35.807 23.1217C36.2289 24.303 36.4539 25.5126 36.4539 26.7783C36.4539 29.1974 35.8914 31.1945 34.7662 32.7696C33.6411 34.3448 32.0659 35.5262 30.2376 36.2013C28.3249 36.9045 26.2153 37.1576 23.9088 37.1576C23.2337 37.1576 22.7836 37.1576 22.5024 37.1295C22.2211 37.1014 21.8273 37.1014 21.2928 37.1014V46.1305C21.321 46.3274 21.1803 46.4962 20.9834 46.5243C20.9553 46.5243 20.9272 46.5243 20.8709 46.5243H15.5266C15.3015 46.5243 15.189 46.4118 15.189 46.1586ZM21.321 22.3341V31.7851C21.7148 31.8133 22.0804 31.8414 22.418 31.8414H23.9088C25.0058 31.8414 26.1028 31.6726 27.1435 31.3351C28.0436 31.0819 28.8312 30.5475 29.45 29.8443C30.0407 29.1411 30.322 28.1847 30.322 26.9471C30.3501 26.0751 30.1251 25.2032 29.675 24.4437C29.1969 23.7124 28.5218 23.1498 27.7061 22.8404C26.6653 22.4185 25.5402 22.2497 24.3869 22.2778C23.6556 22.2778 23.0087 22.2778 22.4742 22.306C21.9117 22.2778 21.5179 22.306 21.321 22.3341Z" fill="#31A8FF"/>
<path d="M54.0059 30.0697C53.1621 29.6197 52.262 29.3103 51.3056 29.1134C50.2649 28.8884 49.2241 28.7477 48.1552 28.7477C47.5927 28.7196 47.002 28.804 46.4675 28.9446C46.1019 29.029 45.7925 29.2259 45.5956 29.5072C45.4549 29.7322 45.3706 30.0135 45.3706 30.2666C45.3706 30.5198 45.4831 30.7729 45.6518 30.998C45.905 31.3074 46.2425 31.5605 46.6082 31.7574C47.2551 32.095 47.9302 32.4044 48.6053 32.6857C50.1242 33.192 51.5869 33.8952 52.937 34.739C53.8653 35.3297 54.6247 36.1173 55.1592 37.0736C55.6092 37.9738 55.8342 38.9582 55.8061 39.9709C55.8342 41.2929 55.4404 42.6149 54.7091 43.7119C53.9215 44.837 52.8245 45.709 51.5587 46.2153C50.1805 46.806 48.4928 47.1154 46.4675 47.1154C45.1737 47.1154 43.9079 47.0029 42.6421 46.7497C41.6576 46.581 40.6731 46.2716 39.773 45.8496C39.5761 45.7371 39.4355 45.5402 39.4636 45.3152V40.4209C39.4636 40.3365 39.4918 40.224 39.5761 40.1677C39.6605 40.1115 39.7449 40.1396 39.8293 40.1959C40.9263 40.8428 42.0796 41.2929 43.3172 41.5742C44.3861 41.8554 45.5112 41.9961 46.6363 41.9961C47.7052 41.9961 48.4647 41.8554 48.971 41.6023C49.421 41.4054 49.7304 40.9272 49.7304 40.4209C49.7304 40.0271 49.5054 39.6614 49.0553 39.2958C48.6053 38.9301 47.6771 38.5082 46.2988 37.9738C44.8642 37.4674 43.5422 36.7924 42.3046 35.9485C41.4326 35.3297 40.7013 34.514 40.1668 33.5576C39.7168 32.6575 39.4918 31.673 39.5199 30.6886C39.5199 29.479 39.8574 28.3258 40.4762 27.285C41.1795 26.1599 42.2202 25.2598 43.4297 24.6973C44.7517 24.0222 46.4113 23.7128 48.4084 23.7128C49.5616 23.7128 50.743 23.7972 51.8963 23.9659C52.7401 24.0784 53.5558 24.3035 54.3153 24.6129C54.4278 24.641 54.5403 24.7535 54.5966 24.866C54.6247 24.9785 54.6528 25.091 54.6528 25.2036V29.7885C54.6528 29.901 54.5966 30.0135 54.5122 30.0697C54.2591 30.126 54.1184 30.126 54.0059 30.0697Z" fill="#31A8FF"/>
</svg>
