<svg width="55" height="65" viewBox="0 0 55 65" fill="none" xmlns="http://www.w3.org/2000/svg">
<path d="M54.0588 49.5207L31.7056 2.05041C31.1398 0.860229 29.9669 0.0760693 28.6509 0.00796397C27.3317 -0.080419 26.073 0.572153 25.3849 1.70107L1.14034 40.9691C0.387684 42.1796 0.40352 43.7163 1.18097 44.911L13.0343 63.2671C13.9553 64.6822 15.6975 65.3228 17.3158 64.8415L51.7141 54.6667C52.7621 54.3603 53.6257 53.6146 54.0816 52.6226C54.5313 51.6353 54.5235 50.5002 54.0604 49.5191L54.0588 49.5207ZM49.0542 51.5567L19.8652 60.1879C18.9748 60.4528 18.1201 59.681 18.3054 58.7824L28.7337 8.84883C28.9287 7.91454 30.2189 7.76667 30.6267 8.6311L49.9317 49.6263C50.1044 49.9961 50.1065 50.4229 49.9374 50.7943C49.7682 51.1656 49.4449 51.4443 49.0526 51.5567H49.0542Z" fill="white"/>
</svg>
