<svg width="46" height="64" viewBox="0 0 46 64" fill="none" xmlns="http://www.w3.org/2000/svg">
<path d="M4.29625 0H7.18087V2.85H9.81962V0H12.7044V8.6305H9.81975V5.7405H7.181V8.6305H4.29637L4.29625 0Z" fill="#E6E6E6"/>
<path d="M16.4976 2.862H13.9581V0H21.9231V2.862H19.3825V8.6305H16.4978L16.4976 2.862Z" fill="#E6E6E6"/>
<path d="M23.1872 0H26.1951L28.0454 3.0325L29.8937 0H32.9027V8.6305H30.03V4.35275L28.0454 7.42137H27.9957L26.0097 4.35275V8.6305H23.1872V0Z" fill="#E6E6E6"/>
<path d="M34.3385 0H37.224V5.77775H41.2806V8.6305H34.3385V0Z" fill="#E6E6E6"/>
<path d="M4.13908 58.8409L-4.57764e-05 12.4121H45.4613L41.3171 58.8444L22.7196 64L4.13908 58.8409Z" fill="#E34E26"/>
<path d="M22.7305 16.207V60.056L37.7689 55.8875L41.3121 16.207H22.7305Z" fill="#EF662A"/>
<path d="M8.46855 21.9019L10.0036 39.122H29.7404L29.0781 46.508L22.7233 48.2261L16.3806 46.5104L15.9564 41.768H10.2406L11.0579 50.91L22.7218 54.1496L34.4008 50.91L35.9664 33.4284H15.2117L14.6907 27.5969H36.4649H36.4825L36.9926 21.9019H8.46855Z" fill="#E6E6E6"/>
<path d="M22.7306 21.9019H8.46855L10.0036 39.122H22.7306V33.4284H15.2117L14.6907 27.5969H22.7306V21.9019Z" fill="#EBEBEB"/>
<path d="M22.7305 48.2236L22.7233 48.2261L16.3805 46.5103L15.9564 41.7679H10.2405L11.0579 50.9099L22.7218 54.1496L22.7305 54.1471V48.2236Z" fill="#EBEBEB"/>
</svg>
