<svg width="68" height="66" viewBox="0 0 68 66" fill="none" xmlns="http://www.w3.org/2000/svg">
<path d="M11.9538 0H55.553C62.1636 0 67.5069 5.3433 67.5069 11.9538V53.8661C67.5069 60.4766 62.1636 65.8199 55.553 65.8199H11.9538C5.34329 65.8199 0 60.4766 0 53.8661V11.9538C0 5.3433 5.34329 0 11.9538 0Z" fill="#00005B"/>
<path d="M27.1148 39.3808H16.6515L14.5126 46.0182C14.4561 46.2711 14.2328 46.4406 13.9772 46.411H8.69309C8.38368 46.411 8.30028 46.2415 8.38368 45.9052L17.4425 19.942C17.5259 19.6595 17.612 19.4066 17.725 19.0703C17.838 18.4784 17.8945 17.8596 17.8945 17.2408C17.8676 17.1009 17.9779 16.961 18.1205 16.9314C18.1474 16.9314 18.177 16.9314 18.2039 16.9314H25.4037C25.6001 16.9314 25.74 17.0148 25.7696 17.1574L36.0364 45.9886C36.1198 46.298 36.0364 46.4379 35.7539 46.4379H29.8725C29.6761 46.4675 29.4797 46.3249 29.4232 46.1285L27.1148 39.3808ZM18.2846 33.7819H25.4279C25.2584 33.19 25.0351 32.4878 24.7822 31.7559C24.5293 30.9972 24.2763 30.182 24.0234 29.3372C23.7409 28.4655 23.488 27.6207 23.2082 26.749C22.9284 25.8772 22.6728 25.062 22.4495 24.2441C22.2235 23.4558 22.0271 22.724 21.8307 22.0487H21.7742C21.5213 23.2594 21.2119 24.4674 20.8191 25.6781C20.3967 27.0288 19.9743 28.4359 19.525 29.8403C19.1564 31.2797 18.7071 32.6008 18.2846 33.7819Z" fill="#9999FF"/>
<path d="M52.7147 36.7928H43.7984C43.9114 37.6645 44.1912 38.5362 44.6701 39.2977C45.1759 40.0564 45.8808 40.6483 46.7229 40.9846C47.8476 41.4635 49.0852 41.7164 50.3228 41.6868C51.3075 41.6599 52.2922 41.5738 53.2474 41.3774C54.1191 41.2644 54.9639 41.0411 55.7522 40.7317C55.8921 40.6187 55.9782 40.6752 55.9782 40.9577V45.2624C55.9782 45.3755 55.9513 45.4885 55.9217 45.5988C55.8652 45.6822 55.8087 45.7387 55.7253 45.7952C54.8267 46.188 53.8985 46.4705 52.9137 46.64C51.5927 46.8929 50.269 47.0059 48.9184 46.9763C46.7794 46.9763 44.9795 46.64 43.5186 45.9916C42.1411 45.3997 40.9303 44.4714 39.9752 43.3199C39.0739 42.2222 38.4282 40.9846 38.0354 39.6367C37.6426 38.3156 37.4435 36.9354 37.4435 35.5283C37.4435 34.0109 37.6668 32.5176 38.1457 31.0567C38.595 29.6496 39.2999 28.3555 40.255 27.2039C41.1832 26.0793 42.3375 25.178 43.6585 24.5323C44.9795 23.8839 46.5561 23.6606 48.3561 23.6606C49.8466 23.6337 51.3371 23.9135 52.7173 24.5323C53.8716 25.0381 54.8832 25.7968 55.6715 26.7815C56.4033 27.7393 56.9925 28.8075 57.3584 29.9886C57.7243 31.1132 57.8938 32.2674 57.8938 33.419C57.8938 34.0943 57.8669 34.6835 57.8373 35.2189C57.7808 35.7543 57.7539 36.1471 57.7243 36.4C57.6974 36.5964 57.5279 36.7659 57.3315 36.7659C57.162 36.7659 56.8526 36.7955 56.4033 36.8224C55.954 36.8789 55.4186 36.9058 54.7729 36.9058C54.1191 36.9058 53.4438 36.7928 52.7147 36.7928ZM43.7957 32.6845H49.7309C50.4627 32.6845 50.9954 32.6845 51.3344 32.6575C51.5604 32.6306 51.7837 32.5741 51.9828 32.4315V32.1517C51.9828 31.7858 51.9263 31.4495 51.8133 31.1105C51.3075 29.5339 49.817 28.4658 48.157 28.5223C46.61 28.4389 45.1463 29.2541 44.4145 30.6612C44.0782 31.3069 43.8818 31.9822 43.7957 32.6845Z" fill="#9999FF"/>
</svg>
