<svg width="65" height="65" viewBox="0 0 65 65" fill="none" xmlns="http://www.w3.org/2000/svg">
<path d="M30.367 0.0174866C30.2272 0.0301971 29.7825 0.0746613 29.3823 0.10643C20.1515 0.93866 11.5052 5.91936 6.02893 13.5746C2.97952 17.8311 1.02917 22.6593 0.292235 27.7734C0.0317646 29.5586 0 30.0859 0 32.5064C0 34.9268 0.0317646 35.4541 0.292235 37.2393C2.05835 49.4433 10.7428 59.6969 22.5211 63.4959C24.6303 64.1757 26.8538 64.6395 29.3823 64.919C30.367 65.027 34.6235 65.027 35.6082 64.919C39.9726 64.4362 43.67 63.3562 47.3166 61.4948C47.8757 61.2089 47.9837 61.1327 47.9074 61.0691C47.8566 61.031 45.4743 57.8355 42.6154 53.9729L37.4187 46.9529L30.907 37.3155C27.3239 32.0172 24.3762 27.6845 24.3508 27.6845C24.3254 27.6781 24.2999 31.96 24.2872 37.1885C24.2682 46.343 24.2618 46.7115 24.1475 46.9275C23.9823 47.2388 23.8552 47.3659 23.5884 47.5056C23.3851 47.6073 23.2072 47.6263 22.248 47.6263H21.1489L20.8567 47.4421C20.6661 47.3214 20.5263 47.1626 20.431 46.9783L20.2976 46.6924L20.3103 33.9548L20.3294 21.2109L20.5263 20.9631C20.628 20.8297 20.844 20.6581 20.9964 20.5756C21.2569 20.4485 21.3585 20.4358 22.4576 20.4358C23.7536 20.4358 23.9696 20.4866 24.3063 20.8551C24.4016 20.9567 27.9275 26.2678 32.1458 32.6652C36.3642 39.0626 42.1326 47.7979 44.966 52.0861L50.1119 59.8811L50.3724 59.7096C52.6785 58.2103 55.118 56.0757 57.0493 53.8522C61.1596 49.132 63.8088 43.3762 64.6982 37.2393C64.9587 35.4541 64.9905 34.9268 64.9905 32.5064C64.9905 30.0859 64.9587 29.5586 64.6982 27.7734C62.9321 15.5695 54.2477 5.31583 42.4693 1.51678C40.3919 0.843369 38.1811 0.379608 35.7035 0.100075C35.0936 0.0365448 30.8943 -0.0333328 30.367 0.0174866ZM43.67 19.6734C43.975 19.8259 44.2227 20.1182 44.3117 20.4231C44.3625 20.5883 44.3752 24.1205 44.3625 32.0807L44.3434 43.5033L42.3296 40.4158L40.3093 37.3282V29.025C40.3093 23.6567 40.3347 20.6391 40.3729 20.493C40.4745 20.1372 40.6969 19.8577 41.0018 19.6925C41.2623 19.5591 41.3576 19.5464 42.355 19.5464C43.2952 19.5464 43.4604 19.5591 43.67 19.6734Z" fill="#D8D8D8"/>
<path d="M49.7943 60.0208C49.5719 60.1606 49.502 60.2559 49.699 60.1479C49.8387 60.0653 50.0674 59.8937 50.0293 59.8874C50.0103 59.8874 49.9023 59.9509 49.7943 60.0208Z" fill="#D8D8D8"/>
<path d="M49.3559 60.3068C49.2415 60.3957 49.2415 60.4021 49.3813 60.3322C49.4575 60.2941 49.5211 60.2496 49.5211 60.2369C49.5211 60.1861 49.4893 60.1988 49.3559 60.3068Z" fill="#D8D8D8"/>
<path d="M49.0383 60.4975C48.9239 60.5864 48.9239 60.5927 49.0637 60.5229C49.1399 60.4847 49.2034 60.4403 49.2034 60.4276C49.2034 60.3767 49.1717 60.3895 49.0383 60.4975Z" fill="#D8D8D8"/>
<path d="M48.7206 60.688C48.6063 60.7769 48.6063 60.7833 48.7461 60.7134C48.8223 60.6753 48.8858 60.6308 48.8858 60.6181C48.8858 60.5673 48.8541 60.58 48.7206 60.688Z" fill="#D8D8D8"/>
<path d="M48.2378 60.9421C47.9964 61.0691 48.0091 61.12 48.2505 60.9993C48.3585 60.9421 48.4411 60.8849 48.4411 60.8722C48.4411 60.8277 48.4348 60.8341 48.2378 60.9421Z" fill="#D8D8D8"/>
</svg>
