<svg width="60" height="65" viewBox="0 0 60 65" fill="none" xmlns="http://www.w3.org/2000/svg">
<path d="M27.5534 0.693458C29.1651 -0.229068 31.2644 -0.233235 32.8747 0.693458C40.976 5.27114 49.0799 9.84164 57.1798 14.4221C58.7033 15.2803 59.7224 16.9758 59.7069 18.7312V46.2723C59.7182 48.1004 58.5985 49.8365 56.9912 50.6752C48.9165 55.2276 40.8459 59.7856 32.7726 64.3381C31.1276 65.2787 28.9862 65.2062 27.3925 64.1885C24.9717 62.7852 22.5468 61.3888 20.1258 59.9868C19.631 59.6919 19.0734 59.4571 18.724 58.9775C19.0329 58.5612 19.585 58.5094 20.0336 58.3276C21.0441 58.0063 21.9722 57.4905 22.9005 56.99C23.1353 56.8294 23.4219 56.891 23.6469 57.0347C25.7169 58.2216 27.7687 59.443 29.8457 60.6186C30.2888 60.8744 30.7375 60.5348 31.1162 60.3236C39.04 55.8453 46.9735 51.3838 54.8959 46.9041C55.1894 46.7628 55.3517 46.4512 55.3278 46.1297C55.3334 37.0445 55.3292 27.9577 55.3306 18.8724C55.3642 18.5076 55.1531 18.1722 54.8232 18.0228C46.7765 13.4912 38.7339 8.95268 30.6886 4.41991C30.5492 4.32408 30.3841 4.27266 30.215 4.27242C30.0458 4.27217 29.8805 4.3231 29.7409 4.41852C21.6956 8.95268 13.6544 13.4954 5.60911 18.0268C5.28038 18.1763 5.05976 18.5062 5.09888 18.8724C5.10027 27.9577 5.09888 37.0445 5.09888 46.1311C5.08493 46.288 5.11939 46.4454 5.19762 46.5821C5.27585 46.7188 5.39409 46.8283 5.53642 46.8957C7.68335 48.1132 9.83305 49.3221 11.9814 50.5354C13.1917 51.1868 14.6776 51.5739 16.0111 51.0748C17.1878 50.6527 18.0126 49.4519 17.9902 48.2025C18.0013 39.1703 17.9846 30.1368 17.9985 21.106C17.9691 20.705 18.3495 20.3737 18.7393 20.4115C19.7709 20.4045 20.8038 20.3976 21.8354 20.4142C22.266 20.4045 22.5623 20.8363 22.5091 21.2402C22.5049 30.3296 22.5202 39.4192 22.5021 48.5086C22.5049 50.931 21.5097 53.5668 19.269 54.7521C16.5086 56.1821 13.0967 55.8788 10.3697 54.5077C8.00884 53.3293 5.75588 51.9387 3.43695 50.6763C1.82548 49.8422 0.711268 48.0993 0.722611 46.2725V18.7312C0.705712 16.9394 1.76529 15.2131 3.33624 14.3675C11.4096 9.81131 19.4815 5.25169 27.5534 0.693458Z" fill="#8CC84B"/>
<path d="M34.5966 19.7713C38.1177 19.5447 41.8872 19.637 45.0558 21.3716C47.509 22.7009 48.8691 25.4907 48.9123 28.2162C48.8438 28.5838 48.4595 28.7866 48.1086 28.7614C47.087 28.76 46.0651 28.7752 45.0435 28.7544C44.6101 28.7711 44.3583 28.3715 44.3039 27.9884C44.0103 26.6843 43.2992 25.3928 42.0718 24.7638C40.1876 23.8205 38.0029 23.8679 35.9484 23.8876C34.4485 23.9672 32.8356 24.0971 31.5649 24.9791C30.5894 25.6472 30.293 26.9959 30.6412 28.0821C30.9695 28.8621 31.8698 29.1137 32.6064 29.3457C36.8498 30.4555 41.3465 30.345 45.5088 31.8056C47.2321 32.401 48.9179 33.5585 49.5078 35.3628C50.2793 37.781 49.9411 40.6716 48.2206 42.6129C46.8254 44.2105 44.7933 45.08 42.7665 45.5523C40.0702 46.1535 37.2721 46.1687 34.5339 45.9018C31.9591 45.6083 29.2798 44.9318 27.2921 43.1775C25.5924 41.7017 24.7623 39.4022 24.8447 37.1829C24.8644 36.8081 25.2376 36.5467 25.5966 36.5775C26.6254 36.5691 27.6542 36.5664 28.683 36.5789C29.0939 36.5495 29.3985 36.9046 29.4196 37.2919C29.6094 38.5343 30.0764 39.8384 31.1598 40.575C33.2507 41.924 35.8743 41.8316 38.2684 41.8693C40.2519 41.7814 42.4785 41.7547 44.0971 40.4438C44.9511 39.696 45.2042 38.445 44.9734 37.3687C44.7234 36.4601 43.7728 36.0367 42.9565 35.7598C38.7676 34.4347 34.2207 34.9155 30.0722 33.417C28.388 32.8219 26.7594 31.6965 26.1124 29.9663C25.2095 27.5175 25.6232 24.4886 27.5241 22.6127C29.3775 20.7468 32.0529 20.0285 34.5966 19.7713Z" fill="#8CC84B"/>
</svg>
