<svg width="65" height="65" viewBox="0 0 65 65" fill="none" xmlns="http://www.w3.org/2000/svg">
<path d="M32.1978 0.000531661C29.5468 0.0128495 27.0152 0.238937 24.7877 0.633101C18.2256 1.7924 17.0342 4.21892 17.0342 8.69383V14.6038H32.5411V16.5738H17.0342H11.2145C6.70778 16.5738 2.76154 19.2827 1.5272 24.4358C0.10341 30.3424 0.0402572 34.0283 1.5272 40.1958C2.62949 44.7866 5.26191 48.0577 9.76867 48.0577H15.1003V40.9729C15.1003 35.8546 19.5288 31.3398 24.7877 31.3398H40.2766C44.5881 31.3398 48.0301 27.7898 48.0301 23.4598V8.69383C48.0301 4.49136 44.4848 1.33448 40.2766 0.633101C37.6127 0.189666 34.8487 -0.0117862 32.1978 0.000531661ZM23.8117 4.75384C25.4135 4.75384 26.7215 6.08325 26.7215 7.71787C26.7215 9.3467 25.4135 10.6638 23.8117 10.6638C22.2042 10.6638 20.9019 9.3467 20.9019 7.71787C20.9019 6.08325 22.2042 4.75384 23.8117 4.75384Z" fill="url(#paint0_linear_245_2486)"/>
<path d="M49.9642 16.5739V23.4598C49.9642 28.7984 45.4381 33.2917 40.2768 33.2917H24.7879C20.5452 33.2917 17.0344 36.9229 17.0344 41.1717V55.9377C17.0344 60.1402 20.6888 62.612 24.7879 63.8177C29.6965 65.261 34.4037 65.5219 40.2768 63.8177C44.1808 62.6874 48.0303 60.4126 48.0303 55.9377V50.0277H32.5414V48.0577H48.0303H55.7838C60.2906 48.0577 61.97 44.9141 63.5373 40.1958C65.1563 35.3383 65.0874 30.667 63.5373 24.4358C62.4235 19.9493 60.2963 16.5739 55.7838 16.5739H49.9642ZM41.2528 53.9677C42.8603 53.9677 44.1626 55.2849 44.1626 56.9137C44.1626 58.5483 42.8603 59.8777 41.2528 59.8777C39.651 59.8777 38.343 58.5483 38.343 56.9137C38.343 55.2849 39.651 53.9677 41.2528 53.9677Z" fill="url(#paint1_linear_245_2486)"/>
<defs>
<linearGradient id="paint0_linear_245_2486" x1="0.435547" y1="4.39657e-08" x2="36.1929" y2="30.4703" gradientUnits="userSpaceOnUse">
<stop stop-color="#5A9FD4"/>
<stop offset="1" stop-color="#306998"/>
</linearGradient>
<linearGradient id="paint1_linear_245_2486" x1="40.8801" y1="56.4168" x2="28.0517" y2="38.4404" gradientUnits="userSpaceOnUse">
<stop stop-color="#FFD43B"/>
<stop offset="1" stop-color="#FFE873"/>
</linearGradient>
</defs>
</svg>
