<svg width="57" height="65" viewBox="0 0 57 65" fill="none" xmlns="http://www.w3.org/2000/svg">
<path d="M27.3594 0.558231L1.05079 15.7478C0.501445 16.0645 0.0556641 16.836 0.0556641 17.4694V47.8501C0.0556641 48.4835 0.501445 49.2549 1.05079 49.5716L27.3594 64.7612C27.9087 65.0794 28.7988 65.0794 29.3481 64.7612L55.6582 49.5716C56.2076 49.2549 56.6519 48.4835 56.6519 47.8501V17.4694C56.6519 16.836 56.2076 16.0645 55.6582 15.7478L29.3481 0.558231C28.7988 0.24003 27.9087 0.24003 27.3594 0.558231Z" fill="#003566"/>
<mask id="mask0_446_2574" style="mask-type:luminance" maskUnits="userSpaceOnUse" x="0" y="0" width="57" height="65">
<path d="M0 0H56.8679V64.937H0V0Z" fill="white"/>
</mask>
<g mask="url(#mask0_446_2574)">
<mask id="mask1_446_2574" style="mask-type:luminance" maskUnits="userSpaceOnUse" x="0" y="0" width="57" height="65">
<path d="M27.3594 0.558231L1.05079 15.7478C0.501445 16.0645 0.0556641 16.836 0.0556641 17.4694V47.8501C0.0556641 48.4835 0.501445 49.2549 1.05079 49.5716L27.3594 64.7612C27.9087 65.0794 28.7988 65.0794 29.3481 64.7612L55.6582 49.5716C56.2076 49.2549 56.6519 48.4835 56.6519 47.8501V17.4694C56.6519 16.836 56.2076 16.0645 55.6582 15.7478L29.3481 0.558231C28.7988 0.24003 27.9087 0.24003 27.3594 0.558231Z" fill="white"/>
</mask>
<g mask="url(#mask1_446_2574)">
<path d="M-25.1008 0.574558L81.8086 64.7445C82.3519 65.0717 82.7932 64.8211 82.7932 64.1877V1.13141C82.7932 0.49801 82.2784 -0.0168148 81.645 -0.0168148H-24.9372C-25.5721 -0.0168148 -26.0854 -0.530139 -26.0854 -1.16504C-26.0854 -0.530139 -25.6457 0.247352 -25.1008 0.574558Z" fill="#3A6EA5"/>
<path d="M81.8086 0.574558L-25.1008 64.7445C-25.6457 65.0717 -26.0854 64.8211 -26.0854 64.1877V1.13141C-26.0854 0.49801 -25.5721 -0.0168148 -24.9372 -0.0168148H81.645C82.2784 -0.0168148 82.7932 -0.530139 82.7932 -1.16504C82.7932 -0.530139 82.3519 0.247352 81.8086 0.574558Z" fill="#004E98"/>
</g>
</g>
<path d="M10.7141 41.8154C9.42933 41.8154 8.23458 41.5707 7.12988 41.0829C6.02819 40.5906 5.13963 39.8612 4.4642 38.8916C3.79178 37.9234 3.45557 36.7242 3.45557 35.2953C3.45557 35.1722 3.45857 35.0491 3.46757 34.9291C3.47958 34.806 3.48559 34.7009 3.48559 34.6169H7.56216C7.56216 34.6409 7.55615 34.7099 7.54415 34.821C7.53214 34.9336 7.52613 35.0296 7.52613 35.1092C7.52613 36.1103 7.82182 36.9163 8.41469 37.5287C9.00607 38.1411 9.83459 38.4473 10.9003 38.4473C12.08 38.4473 12.9055 38.1876 13.3738 37.6668C13.8451 37.1475 14.0823 36.5801 14.0823 35.9677C14.0823 35.2518 13.8977 34.6799 13.5299 34.2506C13.1607 33.8229 12.6744 33.4701 12.071 33.194C11.4706 32.9178 10.8072 32.6686 10.0837 32.4435C9.35879 32.2198 8.62783 31.9662 7.89236 31.681C7.1599 31.3928 6.49048 31.0206 5.8871 30.5643C5.28672 30.105 4.80192 29.5076 4.43418 28.7752C4.06495 28.0397 3.88184 27.0986 3.88184 25.9534C3.88184 24.6251 4.20754 23.5279 4.86045 22.6633C5.51637 21.7958 6.38091 21.1474 7.45409 20.7181C8.52576 20.2903 9.6845 20.0757 10.9303 20.0757C12.1551 20.0757 13.2808 20.2903 14.3104 20.7181C15.3431 21.1474 16.1686 21.8153 16.79 22.7234C17.4144 23.6329 17.7266 24.8112 17.7266 26.2596V26.6258H13.716V26.3496C13.716 25.4536 13.4654 24.7451 12.9656 24.2243C12.4642 23.705 11.7648 23.4438 10.8642 23.4438C9.92765 23.4438 9.20269 23.6539 8.69087 24.0742C8.18205 24.4915 7.92839 25.0258 7.92839 25.6772C7.92839 26.2896 8.11 26.7804 8.47473 27.1481C8.84246 27.5174 9.32727 27.8236 9.92765 28.0667C10.531 28.3114 11.202 28.541 11.9389 28.7572C12.6744 28.9703 13.4053 29.2195 14.1303 29.5076C14.8538 29.7928 15.5172 30.165 16.1176 30.6243C16.7209 31.0851 17.2057 31.678 17.5705 32.4015C17.9382 33.1264 18.1228 34.039 18.1228 35.1392C18.1228 36.7527 17.8061 38.045 17.1742 39.0176C16.5408 39.9872 15.6688 40.6957 14.5566 41.143C13.4429 41.5903 12.1626 41.8154 10.7141 41.8154Z" fill="white"/>
<path d="M32.4553 45.2496L29.4234 41.8154H29.0571C26.3434 41.8154 24.2091 40.9298 22.6571 39.1557C21.1036 37.3786 20.3276 34.6409 20.3276 30.9425C20.3276 27.2292 21.1036 24.4885 22.6571 22.7234C24.2091 20.9582 26.3434 20.0757 29.0571 20.0757C31.7739 20.0757 33.9082 20.9582 35.4572 22.7234C37.0092 24.4885 37.7867 27.2292 37.7867 30.9425C37.7867 33.5767 37.3874 35.7155 36.5919 37.3606C35.7949 39.0056 34.6722 40.1944 33.2238 40.9268L37.2643 45.2496H32.4553ZM29.0571 38.4473C30.6301 38.4473 31.8039 37.8514 32.5814 36.6581C33.3574 35.4619 33.7461 33.8123 33.7461 31.711V30.1801C33.7461 28.0757 33.3574 26.4262 32.5814 25.2329C31.8039 24.0412 30.6301 23.4438 29.0571 23.4438C27.5082 23.4438 26.3389 24.0412 25.5509 25.2329C24.7659 26.4262 24.3742 28.0757 24.3742 30.1801V31.711C24.3742 33.8123 24.7659 35.4619 25.5509 36.6581C26.3389 37.8514 27.5082 38.4473 29.0571 38.4473Z" fill="white"/>
<path d="M40.6646 41.4491V20.4419H44.585V37.7748H53.4646V41.4491H40.6646Z" fill="white"/>
</svg>
