<svg width="65" height="65" viewBox="0 0 65 65" fill="none" xmlns="http://www.w3.org/2000/svg">
<g clip-path="url(#clip0_159_2509)">
<path d="M43.9129 18.6893L43.7098 19.7483C43.3956 21.7552 43.5094 22.3293 44.3706 23.0741L45.2021 23.762L44.3408 27.6025C43.8262 29.8937 43.1952 31.8139 42.7944 32.445C42.4504 32.9893 42.0496 33.791 41.9629 34.2216C41.8194 34.7362 41.3319 35.2535 40.5871 35.7112C39.929 36.085 38.6371 37.087 37.7217 37.8914C36.9904 38.5495 36.4867 38.9531 36.2131 39.1264L35.3194 39.8333C35.0323 40.2937 34.8698 40.6647 34.8075 40.9464C34.7452 41.2362 34.7804 41.4285 34.8725 41.5693C34.9619 41.7047 35.1162 41.7995 35.3275 41.8591C35.5776 41.9177 35.835 41.9387 36.0912 41.9214C36.671 41.8818 37.2448 41.7801 37.8029 41.6181C37.9925 41.5666 38.1415 41.5179 38.2715 41.4745C38.4719 41.2281 38.935 40.7622 39.7556 39.9525C41.9331 37.8047 42.7646 36.6293 41.906 36.9462C41.5892 37.06 41.7327 36.7729 42.2771 36.1987C43.4254 35.0802 44.0835 33.3902 45.4594 28.09C46.5481 23.9056 46.5481 23.846 47.3498 23.846C47.7262 23.846 48.7906 23.911 48.7906 23.911V18.6893H46.3477H43.9129ZM54.3102 27.2612C54.1369 27.2612 53.8498 27.5212 53.6792 27.8083C53.365 28.3229 53.736 28.637 58.4648 31.5891C61.2733 33.3685 63.5375 34.8852 63.4806 35.0016C63.4237 35.0856 61.1298 36.5779 58.3808 38.2977C53.3921 41.3906 53.365 41.4204 53.8227 42.0514C54.3969 42.7962 53.8227 43.0535 60.2983 39.0127L65 36.0037V33.7395L59.754 30.5004C56.9183 28.7237 54.4537 27.291 54.3102 27.2612ZM10.7467 27.5781C10.6031 27.5781 8.13854 29.0406 5.30292 30.7875L0 34.0266V36.2908L5.27312 39.5868C8.19812 41.3906 10.6627 42.8829 10.7765 42.8829C10.8902 42.8829 11.1204 42.6229 11.3506 42.3087C11.6946 41.7643 11.4048 41.5341 6.56229 38.4683C1.95 35.5731 1.4625 35.1722 1.92292 34.8581C2.21 34.6577 4.3875 33.3089 6.73833 31.8491C12.0981 28.5531 11.811 28.7806 11.3804 28.0927C11.2098 27.8083 10.92 27.551 10.7494 27.5781H10.7467ZM34.2658 27.6404C33.475 27.635 31.7742 28.8402 26.6825 32.9975C26.4631 33.5202 26.4442 33.8804 26.5444 34.1133C26.6094 34.2731 26.7285 34.3841 26.8937 34.4654C27.0562 34.5466 27.2675 34.5954 27.5004 34.6143C27.9635 34.655 28.5106 34.5818 28.9521 34.4952L29.25 34.4275C29.352 34.2907 29.4859 34.181 29.64 34.1079C29.9542 33.9345 31.2731 32.732 32.5921 31.4429C34.9131 29.092 35.4575 28.0304 34.5123 27.6864C34.4347 27.6556 34.3493 27.6399 34.2658 27.6404ZM40.2133 29.2735C39.5173 29.2925 38.2633 30.0995 36.1156 31.8139C35.0377 32.6887 34.3552 33.16 33.9896 33.2575L32.5704 34.3787C32.0369 35.3537 31.9583 35.9577 32.0992 36.2908C32.1344 36.373 32.1856 36.4473 32.2497 36.5096C32.3139 36.5719 32.3897 36.6209 32.4729 36.6537C32.6798 36.7354 32.9005 36.7768 33.1229 36.7756C33.6545 36.7699 34.1829 36.6925 34.6937 36.5454C34.96 36.4739 35.2229 36.3908 35.4819 36.2962L35.5604 36.2637L35.704 36.1879C35.9748 35.8385 36.5977 35.1804 37.3777 34.422C39.8423 32.0441 41.1017 30.3541 40.8444 29.7231C40.7279 29.417 40.5275 29.2627 40.2133 29.2735ZM33.6483 32.1985C33.4479 32.2202 32.9983 32.5668 32.1885 33.2764C31.0185 34.311 29.7429 34.9068 29.3015 34.6414C29.1989 34.6646 29.0959 34.6863 28.9927 34.7064C28.5431 34.7958 27.9825 34.8689 27.4815 34.8283C27.2454 34.814 27.014 34.7561 26.799 34.6577C26.5961 34.5649 26.4343 34.4012 26.344 34.1972C26.2437 33.9535 26.2437 33.6502 26.3575 33.2629L24.5971 34.7091L20.6131 38.0052V43.3487L33.6673 33.0652C33.6648 32.9526 33.6794 32.8402 33.7106 32.732C33.8108 32.3691 33.8054 32.185 33.6483 32.2012V32.1985ZM39.2654 33.9291C39.0677 33.9291 38.7373 34.2081 38.2092 34.7687C37.4915 35.5352 36.3621 36.2772 35.7635 36.4289L35.6715 36.4777C35.5732 36.5182 35.4738 36.5562 35.3735 36.5914C35.211 36.6456 34.9998 36.7106 34.756 36.7756C34.2685 36.9083 33.6619 37.0302 33.1202 37.0166C32.8648 37.0163 32.6119 36.9666 32.3754 36.8704C32.1525 36.7785 31.9738 36.6037 31.8771 36.3829C31.72 36.0064 31.7823 35.4783 32.1262 34.7281L20.6104 43.7983V47.0618H25.6696L36.4 38.6335C36.679 38.3247 37.0987 37.9022 37.6648 37.3741C39.1815 35.9685 39.5254 35.4837 39.5254 34.766C39.5254 34.2081 39.4631 33.9264 39.2654 33.9264V33.9291ZM41.8194 39.2104L40.9012 40.1258C40.3867 40.6133 39.4685 41.2145 38.8402 41.4718L38.7156 41.526L38.7075 41.5395L38.6804 41.5666C38.656 41.5856 38.6452 41.5883 38.6262 41.5964C38.3754 41.6914 38.1206 41.7754 37.8625 41.8483C37.2886 42.0153 36.6984 42.1198 36.1021 42.1597C35.8201 42.1778 35.5371 42.1532 35.2625 42.0866C35.0242 42.0342 34.8138 41.8952 34.6721 41.6966C34.5421 41.4962 34.5042 41.2281 34.5773 40.8977C34.6355 40.6624 34.7218 40.4351 34.8346 40.2206L26.176 47.0618H37.6919L39.0677 45.4856C40.9581 43.281 41.8194 41.7047 41.8194 40.356V39.2104Z" fill="#EE3F86"/>
</g>
<defs>
<clipPath id="clip0_159_2509">
<rect width="65" height="65" fill="white"/>
</clipPath>
</defs>
</svg>
