<svg width="71" height="66" viewBox="0 0 71 66" fill="none" xmlns="http://www.w3.org/2000/svg">
<path d="M71 19.308C71 19.308 66.5625 25.9643 58.9554 24.6964C51.3482 23.4285 50.0804 12.0178 36.4509 12.0178C19.6518 12.0178 17.75 26.2812 17.75 26.2812C17.75 26.2812 22.5045 19.308 29.7946 20.5759C37.0848 21.8437 39.9375 33.2544 54.8348 33.2544C69.7321 33.2544 71 19.308 71 19.308Z" fill="url(#paint0_linear_305_4515)"/>
<path d="M53.25 40.5446C53.25 40.5446 48.8125 47.2008 41.2054 45.933C33.5982 44.6651 32.3304 33.2544 18.7009 33.2544C1.90178 33.2544 0 47.5178 0 47.5178C0 47.5178 4.75446 40.5446 12.0446 41.8124C19.0179 43.0803 22.1875 54.491 37.0848 54.491C51.9821 54.491 53.25 40.5446 53.25 40.5446Z" fill="url(#paint1_linear_305_4515)"/>
<defs>
<linearGradient id="paint0_linear_305_4515" x1="17.601" y1="22.6361" x2="70.9715" y2="22.6361" gradientUnits="userSpaceOnUse">
<stop stop-color="#45A9B3"/>
<stop offset="0.389" stop-color="#3FAEB0"/>
<stop offset="1" stop-color="#2CBBAB"/>
</linearGradient>
<linearGradient id="paint1_linear_305_4515" x1="-0.247232" y1="43.8727" x2="53.12" y2="43.8727" gradientUnits="userSpaceOnUse">
<stop stop-color="#45A9B3"/>
<stop offset="0.389" stop-color="#3FAEB0"/>
<stop offset="1" stop-color="#2CBBAB"/>
</linearGradient>
</defs>
</svg>
