<svg width="65" height="39" viewBox="0 0 65 39" fill="none" xmlns="http://www.w3.org/2000/svg">
<path d="M65 6.67411C65 6.67411 60.9375 12.7679 53.9732 11.6071C47.0089 10.4464 45.8482 0 33.3705 0C17.9911 0 16.25 13.058 16.25 13.058C16.25 13.058 20.6027 6.67411 27.2768 7.83482C33.9509 8.99554 36.5625 19.442 50.2009 19.442C63.8393 19.442 65 6.67411 65 6.67411Z" fill="url(#paint0_linear_115_2591)"/>
<path d="M48.75 26.1161C48.75 26.1161 44.6875 32.2099 37.7232 31.0492C30.7589 29.8884 29.5982 19.442 17.1205 19.442C1.74107 19.442 0 32.5001 0 32.5001C0 32.5001 4.35268 26.1161 11.0268 27.2768C17.4107 28.4376 20.3125 38.884 33.9509 38.884C47.5893 38.884 48.75 26.1161 48.75 26.1161Z" fill="url(#paint1_linear_115_2591)"/>
<defs>
<linearGradient id="paint0_linear_115_2591" x1="16.1136" y1="9.72098" x2="64.9739" y2="9.72098" gradientUnits="userSpaceOnUse">
<stop stop-color="#45A9B3"/>
<stop offset="0.389" stop-color="#3FAEB0"/>
<stop offset="1" stop-color="#2CBBAB"/>
</linearGradient>
<linearGradient id="paint1_linear_115_2591" x1="-0.226339" y1="29.163" x2="48.631" y2="29.163" gradientUnits="userSpaceOnUse">
<stop stop-color="#45A9B3"/>
<stop offset="0.389" stop-color="#3FAEB0"/>
<stop offset="1" stop-color="#2CBBAB"/>
</linearGradient>
</defs>
</svg>
