<svg width="66" height="65" viewBox="0 0 66 65" fill="none" xmlns="http://www.w3.org/2000/svg">
<path d="M0.5 32.5V0H65.5V65H0.5" fill="#007ACC"/>
<path d="M14.7515 32.6138V35.2625H23.2015V59.3125H29.1977V35.2625H37.6477V32.6625C37.6477 31.2 37.6477 30.0138 37.5827 29.9813C37.5827 29.9325 32.4315 29.9163 26.1752 29.9163L14.8002 29.965V32.63L14.7515 32.6138ZM52.7277 29.9C54.3852 30.29 55.6527 31.0375 56.7902 32.2238C57.3915 32.8738 58.2852 34.0113 58.3502 34.3038C58.3502 34.4013 55.539 36.3025 53.8327 37.3588C53.7677 37.4075 53.5077 37.1313 53.2477 36.7088C52.4027 35.5063 51.5415 34.9863 50.1927 34.8888C48.2427 34.7588 46.9427 35.7825 46.9427 37.4888C46.9427 38.0088 47.0402 38.3013 47.2352 38.7238C47.674 39.6175 48.4865 40.1538 51.0052 41.2588C55.6527 43.2575 57.6677 44.5738 58.8865 46.4588C60.2677 48.5713 60.5765 51.8863 59.6502 54.3725C58.6102 57.0863 56.0752 58.9225 52.4515 59.5238C51.314 59.7188 48.714 59.6863 47.4952 59.475C44.8952 58.9875 42.409 57.6875 40.8815 56.0138C40.2802 55.3638 39.1265 53.625 39.1915 53.5113L39.809 53.1213L42.2465 51.7075L44.0827 50.635L44.5052 51.2038C45.0415 52.0488 46.244 53.1863 46.9427 53.5763C49.0552 54.665 51.8827 54.5188 53.2802 53.2513C53.8815 52.6988 54.1415 52.1138 54.1415 51.3013C54.1415 50.5538 54.0277 50.2125 53.654 49.6438C53.134 48.9288 52.094 48.3438 49.169 47.0438C45.8052 45.6138 44.3752 44.7038 43.0427 43.3063C42.279 42.4613 41.5802 41.145 41.2552 40.0563C41.0115 39.1138 40.9302 36.8063 41.1577 35.88C41.8565 32.63 44.3102 30.355 47.8202 29.705C48.9577 29.4775 51.639 29.575 52.7602 29.8675L52.7277 29.9Z" fill="white"/>
</svg>
