<svg width="88" height="39" viewBox="0 0 88 39" fill="none" xmlns="http://www.w3.org/2000/svg">
<path d="M59.4513 0.491943L59.1763 1.92561C58.751 4.64261 58.905 5.41994 60.071 6.42827L61.1967 7.35961L60.0307 12.5589C59.334 15.6609 58.4797 18.2606 57.937 19.1149C57.4713 19.8519 56.9287 20.9373 56.8113 21.5203C56.617 22.2169 55.957 22.9173 54.9487 23.5369C54.0577 24.0429 52.3087 25.3996 51.0693 26.4886C50.0793 27.3796 49.3973 27.9259 49.027 28.1606L47.817 29.1176C47.4283 29.7409 47.2083 30.2433 47.124 30.6246C47.0397 31.0169 47.0873 31.2773 47.212 31.4679C47.333 31.6513 47.542 31.7796 47.828 31.8603C48.1666 31.9396 48.5151 31.968 48.862 31.9446C49.6469 31.891 50.4238 31.7533 51.1793 31.5339C51.436 31.4643 51.6377 31.3983 51.8137 31.3396C52.085 31.0059 52.712 30.3753 53.823 29.2789C56.771 26.3713 57.8967 24.7799 56.7343 25.2089C56.3053 25.3629 56.4997 24.9743 57.2367 24.1969C58.7913 22.6826 59.6823 20.3946 61.545 13.2189C63.019 7.55394 63.019 7.47328 64.1043 7.47328C64.614 7.47328 66.055 7.56127 66.055 7.56127V0.491943H62.7477H59.4513ZM73.5277 12.0969C73.293 12.0969 72.9043 12.4489 72.6733 12.8376C72.248 13.5343 72.7503 13.9596 79.1523 17.9563C82.9547 20.3653 86.02 22.4186 85.943 22.5763C85.866 22.6899 82.7603 24.7103 79.0387 27.0386C72.2847 31.2259 72.248 31.2663 72.8677 32.1206C73.645 33.1289 72.8677 33.4773 81.6347 28.0066L88 23.9329V20.8676L80.8977 16.4823C77.0587 14.0769 73.722 12.1373 73.5277 12.0969ZM14.5493 12.5259C14.355 12.5259 11.0183 14.5059 7.17933 16.8709L0 21.2563V24.3216L7.139 28.7839C11.099 31.2259 14.4357 33.2463 14.5897 33.2463C14.7437 33.2463 15.0553 32.8943 15.367 32.4689C15.8327 31.7319 15.4403 31.4203 8.88433 27.2696C2.64 23.3499 1.98 22.8073 2.60333 22.3819C2.992 22.1106 5.94 20.2846 9.12267 18.3083C16.379 13.8459 15.9903 14.1539 15.4073 13.2226C15.1763 12.8376 14.784 12.4893 14.553 12.5259H14.5493ZM46.3907 12.6103C45.32 12.6029 43.0173 14.2346 36.124 19.8629C35.827 20.5706 35.8013 21.0583 35.937 21.3736C36.025 21.5899 36.1863 21.7403 36.41 21.8503C36.63 21.9603 36.916 22.0263 37.2313 22.0519C37.8583 22.1069 38.599 22.0079 39.1967 21.8906L39.6 21.7989C39.7381 21.6138 39.9193 21.4653 40.128 21.3663C40.5533 21.1316 42.339 19.5036 44.1247 17.7583C47.267 14.5756 48.004 13.1383 46.7243 12.6726C46.6194 12.6308 46.5036 12.6097 46.3907 12.6103ZM54.4427 14.8213C53.5003 14.8469 51.8027 15.9396 48.895 18.2606C47.4357 19.4449 46.5117 20.0829 46.0167 20.2149L44.0953 21.7329C43.373 23.0529 43.2667 23.8706 43.4573 24.3216C43.5051 24.4329 43.5743 24.5336 43.6612 24.6179C43.748 24.7022 43.8507 24.7685 43.9633 24.8129C44.2435 24.9236 44.5422 24.9796 44.8433 24.9779C45.563 24.9703 46.2784 24.8654 46.97 24.6663C47.3304 24.5695 47.6865 24.457 48.037 24.3289L48.1433 24.2849L48.3377 24.1823C48.7043 23.7093 49.5477 22.8183 50.6037 21.7916C53.9403 18.5723 55.6453 16.2843 55.297 15.4299C55.1393 15.0156 54.868 14.8066 54.4427 14.8213ZM45.5547 18.7813C45.2833 18.8106 44.6747 19.2799 43.5783 20.2406C41.9943 21.6413 40.2673 22.4479 39.6697 22.0886C39.5308 22.12 39.3914 22.1493 39.2517 22.1766C38.643 22.2976 37.884 22.3966 37.2057 22.3416C36.8861 22.3222 36.5728 22.2439 36.2817 22.1106C36.0071 21.9851 35.7879 21.7633 35.6657 21.4873C35.53 21.1573 35.53 20.7466 35.684 20.2223L33.3007 22.1803L27.907 26.6426V33.8769L45.5803 19.9546C45.5769 19.8022 45.5967 19.6501 45.639 19.5036C45.7747 19.0123 45.7673 18.7629 45.5547 18.7849V18.7813ZM53.1593 21.1243C52.8917 21.1243 52.4443 21.5019 51.7293 22.2609C50.7577 23.2986 49.2287 24.3033 48.4183 24.5086L48.2937 24.5746C48.1606 24.6295 48.0261 24.6809 47.8903 24.7286C47.6703 24.8019 47.3843 24.8899 47.0543 24.9779C46.3943 25.1576 45.573 25.3226 44.8397 25.3043C44.4939 25.3038 44.1516 25.2366 43.8313 25.1063C43.5295 24.9819 43.2877 24.7453 43.1567 24.4463C42.944 23.9366 43.0283 23.2216 43.494 22.2059L27.9033 34.4856V38.9039H34.7527L49.28 27.4933C49.6577 27.0753 50.226 26.5033 50.9923 25.7883C53.0457 23.8853 53.5113 23.2289 53.5113 22.2573C53.5113 21.5019 53.427 21.1206 53.1593 21.1206V21.1243ZM56.617 28.2743L55.374 29.5136C54.6773 30.1736 53.4343 30.9876 52.5837 31.3359L52.415 31.4093L52.404 31.4276L52.3673 31.4643C52.3343 31.4899 52.3197 31.4936 52.294 31.5046C51.9544 31.6331 51.6094 31.7469 51.26 31.8456C50.4831 32.0717 49.684 32.2131 48.8767 32.2673C48.495 32.2917 48.1117 32.2584 47.74 32.1683C47.4174 32.0973 47.1326 31.9091 46.9407 31.6403C46.7647 31.3689 46.7133 31.0059 46.8123 30.5586C46.8911 30.2401 47.008 29.9323 47.1607 29.6419L35.4383 38.9039H51.029L52.8917 36.7699C55.451 33.7853 56.617 31.6513 56.617 29.8253V28.2743Z" fill="#EE3F86"/>
</svg>
