<svg width="52" height="58" viewBox="0 0 52 58" fill="none" xmlns="http://www.w3.org/2000/svg">
<path d="M50.3976 44.455L27.0255 57.6862V47.3805L41.5661 39.3731L50.3976 44.455ZM52 43.0083V15.3601L43.4478 20.3046V38.0729L51.9954 43.0037L52 43.0083ZM1.60239 44.455L24.9516 57.6771V47.3805L10.4064 39.3731L1.60239 44.455ZM0 43.0083V15.3601L8.55221 20.3046V38.0729L0 43.0083ZM1.00264 13.57L24.9745 0V9.96232L9.61437 18.4092L9.49075 18.4779L1.00264 13.57ZM50.9882 13.57L27.0255 0V9.96232L42.3856 18.4046L42.5092 18.4733L50.9974 13.57H50.9882Z" fill="#8ED6FB"/>
<path d="M24.9747 45.0364L10.6035 37.1297V21.4812L24.9747 29.7587V45.0364ZM27.0258 45.0364L41.397 37.1389V21.4812L27.0258 29.7587V45.0364ZM11.5787 19.6865L26.0002 11.7478L40.4218 19.6865L26.0002 28.0007L11.5787 19.6865Z" fill="#1C78C0"/>
</svg>
